<svg xmlns="http://www.w3.org/2000/svg" xmlns:xlink="http://www.w3.org/1999/xlink" width="1366" zoomAndPan="magnify" viewBox="0 0 1024.5 576" height="768" preserveAspectRatio="xMidYMid meet" version="1.0"><defs><g/><clipPath id="d3f6269809"><path d="M 0 0.140625 L 1024 0.140625 L 1024 575.859375 L 0 575.859375 Z M 0 0.140625 " clip-rule="nonzero"/></clipPath><clipPath id="a63c0ab0a2"><path d="M 78.003906 431.890625 L 238.847656 431.890625 L 238.847656 475 L 78.003906 475 Z M 78.003906 431.890625 " clip-rule="nonzero"/></clipPath><clipPath id="74db37ff6f"><path d="M 99.371094 431.890625 L 216.773438 431.890625 C 228.574219 431.890625 238.140625 441.457031 238.140625 453.257812 C 238.140625 465.058594 228.574219 474.621094 216.773438 474.621094 L 99.371094 474.621094 C 87.570312 474.621094 78.003906 465.058594 78.003906 453.257812 C 78.003906 441.457031 87.570312 431.890625 99.371094 431.890625 " clip-rule="nonzero"/></clipPath><clipPath id="e54ebefa19"><path d="M 78.003906 57.742188 L 84.824219 57.742188 L 84.824219 119.996094 L 78.003906 119.996094 Z M 78.003906 57.742188 " clip-rule="nonzero"/></clipPath><clipPath id="3164e9bdad"><path d="M 81.34375 57.742188 C 83.1875 57.742188 84.679688 59.234375 84.679688 61.078125 L 84.679688 116.59375 C 84.679688 118.433594 83.1875 119.929688 81.34375 119.929688 C 79.5 119.929688 78.003906 118.433594 78.003906 116.59375 L 78.003906 61.078125 C 78.003906 59.234375 79.5 57.742188 81.34375 57.742188 " clip-rule="nonzero"/></clipPath></defs><g clip-path="url(#d3f6269809)"><path fill="#ffffff" d="M 0 0.140625 L 1024.5 0.140625 L 1024.5 583.640625 L 0 583.640625 Z M 0 0.140625 " fill-opacity="1" fill-rule="nonzero"/><path fill="#ffffff" d="M 0 0.140625 L 1024.5 0.140625 L 1024.5 576.140625 L 0 576.140625 Z M 0 0.140625 " fill-opacity="1" fill-rule="nonzero"/><path fill="#1dcd8d" d="M 0 0.140625 L 1024.5 0.140625 L 1024.5 576.140625 L 0 576.140625 Z M 0 0.140625 " fill-opacity="1" fill-rule="nonzero"/></g><g clip-path="url(#a63c0ab0a2)"><g clip-path="url(#74db37ff6f)"><path fill="#1a2529" d="M 78.003906 431.890625 L 238.101562 431.890625 L 238.101562 474.335938 L 78.003906 474.335938 Z M 78.003906 431.890625 " fill-opacity="1" fill-rule="nonzero"/></g></g><g fill="#ffffff" fill-opacity="1"><g transform="translate(110.14969, 457.391974)"><g><path d="M 8.578125 -5.328125 C 8.796875 -5.328125 8.96875 -5.265625 9.09375 -5.140625 C 9.226562 -5.015625 9.296875 -4.847656 9.296875 -4.640625 L 9.296875 -1.640625 C 9.296875 -1.210938 9.238281 -0.910156 9.125 -0.734375 C 9.007812 -0.554688 8.78125 -0.410156 8.4375 -0.296875 C 8.0625 -0.160156 7.625 -0.0546875 7.125 0.015625 C 6.632812 0.0859375 6.164062 0.125 5.71875 0.125 C 4.695312 0.125 3.8125 -0.0703125 3.0625 -0.46875 C 2.320312 -0.875 1.75 -1.457031 1.34375 -2.21875 C 0.945312 -2.976562 0.75 -3.882812 0.75 -4.9375 C 0.75 -5.976562 0.945312 -6.878906 1.34375 -7.640625 C 1.75 -8.398438 2.3125 -8.984375 3.03125 -9.390625 C 3.757812 -9.796875 4.617188 -10 5.609375 -10 C 6.929688 -10 8.007812 -9.644531 8.84375 -8.9375 C 8.957031 -8.832031 9.039062 -8.726562 9.09375 -8.625 C 9.144531 -8.519531 9.171875 -8.398438 9.171875 -8.265625 C 9.171875 -8.054688 9.113281 -7.878906 9 -7.734375 C 8.882812 -7.597656 8.75 -7.53125 8.59375 -7.53125 C 8.488281 -7.53125 8.394531 -7.546875 8.3125 -7.578125 C 8.226562 -7.609375 8.128906 -7.660156 8.015625 -7.734375 C 7.609375 -8.023438 7.226562 -8.226562 6.875 -8.34375 C 6.519531 -8.46875 6.117188 -8.53125 5.671875 -8.53125 C 4.648438 -8.53125 3.878906 -8.226562 3.359375 -7.625 C 2.847656 -7.019531 2.59375 -6.125 2.59375 -4.9375 C 2.59375 -2.507812 3.65625 -1.296875 5.78125 -1.296875 C 6.414062 -1.296875 7.050781 -1.382812 7.6875 -1.5625 L 7.6875 -4.046875 L 6.109375 -4.046875 C 5.878906 -4.046875 5.703125 -4.097656 5.578125 -4.203125 C 5.453125 -4.316406 5.390625 -4.476562 5.390625 -4.6875 C 5.390625 -4.894531 5.453125 -5.050781 5.578125 -5.15625 C 5.703125 -5.269531 5.878906 -5.328125 6.109375 -5.328125 Z M 8.578125 -5.328125 "/></g></g></g><g fill="#ffffff" fill-opacity="1"><g transform="translate(120.405964, 457.391974)"><g><path d="M 1.9375 0 C 1.664062 0 1.453125 -0.0703125 1.296875 -0.21875 C 1.140625 -0.375 1.0625 -0.585938 1.0625 -0.859375 L 1.0625 -9.015625 C 1.0625 -9.285156 1.140625 -9.492188 1.296875 -9.640625 C 1.453125 -9.796875 1.664062 -9.875 1.9375 -9.875 L 6.984375 -9.875 C 7.253906 -9.875 7.460938 -9.8125 7.609375 -9.6875 C 7.765625 -9.5625 7.84375 -9.390625 7.84375 -9.171875 C 7.84375 -8.929688 7.765625 -8.75 7.609375 -8.625 C 7.460938 -8.5 7.253906 -8.4375 6.984375 -8.4375 L 2.828125 -8.4375 L 2.828125 -5.71875 L 6.703125 -5.71875 C 6.972656 -5.71875 7.179688 -5.65625 7.328125 -5.53125 C 7.484375 -5.414062 7.5625 -5.242188 7.5625 -5.015625 C 7.5625 -4.785156 7.484375 -4.609375 7.328125 -4.484375 C 7.179688 -4.367188 6.972656 -4.3125 6.703125 -4.3125 L 2.828125 -4.3125 L 2.828125 -1.421875 L 6.984375 -1.421875 C 7.253906 -1.421875 7.460938 -1.359375 7.609375 -1.234375 C 7.765625 -1.109375 7.84375 -0.929688 7.84375 -0.703125 C 7.84375 -0.472656 7.765625 -0.296875 7.609375 -0.171875 C 7.460938 -0.0546875 7.253906 0 6.984375 0 Z M 1.9375 0 "/></g></g></g><g fill="#ffffff" fill-opacity="1"><g transform="translate(128.647369, 457.391974)"><g><path d="M 4.296875 0.0625 C 4.015625 0.0625 3.789062 -0.015625 3.625 -0.171875 C 3.46875 -0.335938 3.390625 -0.554688 3.390625 -0.828125 L 3.390625 -8.390625 L 0.84375 -8.390625 C 0.28125 -8.390625 0 -8.632812 0 -9.125 C 0 -9.625 0.28125 -9.875 0.84375 -9.875 L 7.734375 -9.875 C 8.296875 -9.875 8.578125 -9.625 8.578125 -9.125 C 8.578125 -8.632812 8.296875 -8.390625 7.734375 -8.390625 L 5.1875 -8.390625 L 5.1875 -0.828125 C 5.1875 -0.554688 5.101562 -0.335938 4.9375 -0.171875 C 4.78125 -0.015625 4.566406 0.0625 4.296875 0.0625 Z M 4.296875 0.0625 "/></g></g></g><g fill="#ffffff" fill-opacity="1"><g transform="translate(137.224577, 457.391974)"><g/></g></g><g fill="#ffffff" fill-opacity="1"><g transform="translate(141.016462, 457.391974)"><g><path d="M 4.484375 0.125 C 3.765625 0.125 3.082031 0.03125 2.4375 -0.15625 C 1.800781 -0.351562 1.28125 -0.613281 0.875 -0.9375 C 0.664062 -1.09375 0.5625 -1.316406 0.5625 -1.609375 C 0.5625 -1.804688 0.617188 -1.976562 0.734375 -2.125 C 0.847656 -2.269531 0.984375 -2.34375 1.140625 -2.34375 C 1.316406 -2.34375 1.507812 -2.273438 1.71875 -2.140625 C 2.125 -1.847656 2.546875 -1.632812 2.984375 -1.5 C 3.421875 -1.375 3.90625 -1.3125 4.4375 -1.3125 C 5.113281 -1.3125 5.632812 -1.429688 6 -1.671875 C 6.363281 -1.910156 6.546875 -2.257812 6.546875 -2.71875 C 6.546875 -3.070312 6.375 -3.34375 6.03125 -3.53125 C 5.695312 -3.726562 5.132812 -3.914062 4.34375 -4.09375 C 3.519531 -4.269531 2.847656 -4.472656 2.328125 -4.703125 C 1.816406 -4.929688 1.429688 -5.226562 1.171875 -5.59375 C 0.910156 -5.957031 0.78125 -6.421875 0.78125 -6.984375 C 0.78125 -7.566406 0.941406 -8.082031 1.265625 -8.53125 C 1.597656 -8.988281 2.054688 -9.347656 2.640625 -9.609375 C 3.222656 -9.867188 3.878906 -10 4.609375 -10 C 5.941406 -10 7.03125 -9.644531 7.875 -8.9375 C 7.988281 -8.832031 8.070312 -8.726562 8.125 -8.625 C 8.175781 -8.53125 8.203125 -8.410156 8.203125 -8.265625 C 8.203125 -8.066406 8.144531 -7.894531 8.03125 -7.75 C 7.914062 -7.601562 7.773438 -7.53125 7.609375 -7.53125 C 7.515625 -7.53125 7.425781 -7.539062 7.34375 -7.5625 C 7.269531 -7.59375 7.171875 -7.648438 7.046875 -7.734375 C 6.660156 -8.003906 6.285156 -8.207031 5.921875 -8.34375 C 5.566406 -8.476562 5.128906 -8.546875 4.609375 -8.546875 C 3.972656 -8.546875 3.46875 -8.414062 3.09375 -8.15625 C 2.726562 -7.90625 2.546875 -7.550781 2.546875 -7.09375 C 2.546875 -6.71875 2.707031 -6.425781 3.03125 -6.21875 C 3.363281 -6.007812 3.921875 -5.816406 4.703125 -5.640625 C 5.535156 -5.453125 6.207031 -5.242188 6.71875 -5.015625 C 7.238281 -4.785156 7.632812 -4.492188 7.90625 -4.140625 C 8.1875 -3.785156 8.328125 -3.34375 8.328125 -2.8125 C 8.328125 -2.238281 8.164062 -1.726562 7.84375 -1.28125 C 7.519531 -0.832031 7.066406 -0.484375 6.484375 -0.234375 C 5.898438 0.00390625 5.234375 0.125 4.484375 0.125 Z M 4.484375 0.125 "/></g></g></g><g fill="#ffffff" fill-opacity="1"><g transform="translate(149.943482, 457.391974)"><g><path d="M 4.296875 0.0625 C 4.015625 0.0625 3.789062 -0.015625 3.625 -0.171875 C 3.46875 -0.335938 3.390625 -0.554688 3.390625 -0.828125 L 3.390625 -8.390625 L 0.84375 -8.390625 C 0.28125 -8.390625 0 -8.632812 0 -9.125 C 0 -9.625 0.28125 -9.875 0.84375 -9.875 L 7.734375 -9.875 C 8.296875 -9.875 8.578125 -9.625 8.578125 -9.125 C 8.578125 -8.632812 8.296875 -8.390625 7.734375 -8.390625 L 5.1875 -8.390625 L 5.1875 -0.828125 C 5.1875 -0.554688 5.101562 -0.335938 4.9375 -0.171875 C 4.78125 -0.015625 4.566406 0.0625 4.296875 0.0625 Z M 4.296875 0.0625 "/></g></g></g><g fill="#ffffff" fill-opacity="1"><g transform="translate(158.520691, 457.391974)"><g><path d="M 10.015625 -1.078125 C 10.066406 -0.953125 10.09375 -0.832031 10.09375 -0.71875 C 10.09375 -0.5 10.003906 -0.3125 9.828125 -0.15625 C 9.660156 -0.0078125 9.460938 0.0625 9.234375 0.0625 C 9.085938 0.0625 8.945312 0.0195312 8.8125 -0.0625 C 8.6875 -0.144531 8.585938 -0.269531 8.515625 -0.4375 L 7.671875 -2.3125 L 2.75 -2.3125 L 1.90625 -0.4375 C 1.832031 -0.269531 1.726562 -0.144531 1.59375 -0.0625 C 1.46875 0.0195312 1.320312 0.0625 1.15625 0.0625 C 0.945312 0.0625 0.753906 -0.0078125 0.578125 -0.15625 C 0.398438 -0.3125 0.3125 -0.5 0.3125 -0.71875 C 0.3125 -0.832031 0.335938 -0.953125 0.390625 -1.078125 L 4.25 -9.375 C 4.332031 -9.5625 4.460938 -9.703125 4.640625 -9.796875 C 4.816406 -9.898438 5 -9.953125 5.1875 -9.953125 C 5.382812 -9.953125 5.566406 -9.898438 5.734375 -9.796875 C 5.910156 -9.703125 6.039062 -9.5625 6.125 -9.375 Z M 3.359375 -3.703125 L 7.0625 -3.703125 L 5.203125 -7.875 Z M 3.359375 -3.703125 "/></g></g></g><g fill="#ffffff" fill-opacity="1"><g transform="translate(168.902896, 457.391974)"><g><path d="M 8.953125 -1.140625 C 9.066406 -0.960938 9.125 -0.796875 9.125 -0.640625 C 9.125 -0.429688 9.035156 -0.253906 8.859375 -0.109375 C 8.691406 0.0234375 8.492188 0.09375 8.265625 0.09375 C 8.109375 0.09375 7.960938 0.0625 7.828125 0 C 7.691406 -0.0703125 7.578125 -0.179688 7.484375 -0.328125 L 5.625 -3.15625 C 5.4375 -3.445312 5.238281 -3.65625 5.03125 -3.78125 C 4.820312 -3.90625 4.550781 -3.96875 4.21875 -3.96875 L 2.84375 -3.96875 L 2.84375 -0.828125 C 2.84375 -0.546875 2.757812 -0.320312 2.59375 -0.15625 C 2.4375 0 2.222656 0.078125 1.953125 0.078125 C 1.679688 0.078125 1.460938 0 1.296875 -0.15625 C 1.140625 -0.320312 1.0625 -0.546875 1.0625 -0.828125 L 1.0625 -9.015625 C 1.0625 -9.285156 1.140625 -9.492188 1.296875 -9.640625 C 1.453125 -9.796875 1.664062 -9.875 1.9375 -9.875 L 5.4375 -9.875 C 6.550781 -9.875 7.398438 -9.625 7.984375 -9.125 C 8.566406 -8.625 8.859375 -7.898438 8.859375 -6.953125 C 8.859375 -6.191406 8.640625 -5.566406 8.203125 -5.078125 C 7.773438 -4.585938 7.164062 -4.269531 6.375 -4.125 C 6.644531 -4.0625 6.878906 -3.945312 7.078125 -3.78125 C 7.285156 -3.613281 7.488281 -3.378906 7.6875 -3.078125 Z M 5.1875 -5.34375 C 5.863281 -5.34375 6.359375 -5.472656 6.671875 -5.734375 C 6.992188 -5.992188 7.15625 -6.390625 7.15625 -6.921875 C 7.15625 -7.460938 6.992188 -7.851562 6.671875 -8.09375 C 6.359375 -8.34375 5.863281 -8.46875 5.1875 -8.46875 L 2.828125 -8.46875 L 2.828125 -5.34375 Z M 5.1875 -5.34375 "/></g></g></g><g fill="#ffffff" fill-opacity="1"><g transform="translate(178.627466, 457.391974)"><g><path d="M 4.296875 0.0625 C 4.015625 0.0625 3.789062 -0.015625 3.625 -0.171875 C 3.46875 -0.335938 3.390625 -0.554688 3.390625 -0.828125 L 3.390625 -8.390625 L 0.84375 -8.390625 C 0.28125 -8.390625 0 -8.632812 0 -9.125 C 0 -9.625 0.28125 -9.875 0.84375 -9.875 L 7.734375 -9.875 C 8.296875 -9.875 8.578125 -9.625 8.578125 -9.125 C 8.578125 -8.632812 8.296875 -8.390625 7.734375 -8.390625 L 5.1875 -8.390625 L 5.1875 -0.828125 C 5.1875 -0.554688 5.101562 -0.335938 4.9375 -0.171875 C 4.78125 -0.015625 4.566406 0.0625 4.296875 0.0625 Z M 4.296875 0.0625 "/></g></g></g><g fill="#ffffff" fill-opacity="1"><g transform="translate(187.204674, 457.391974)"><g><path d="M 1.9375 0 C 1.664062 0 1.453125 -0.0703125 1.296875 -0.21875 C 1.140625 -0.375 1.0625 -0.585938 1.0625 -0.859375 L 1.0625 -9.015625 C 1.0625 -9.285156 1.140625 -9.492188 1.296875 -9.640625 C 1.453125 -9.796875 1.664062 -9.875 1.9375 -9.875 L 6.984375 -9.875 C 7.253906 -9.875 7.460938 -9.8125 7.609375 -9.6875 C 7.765625 -9.5625 7.84375 -9.390625 7.84375 -9.171875 C 7.84375 -8.929688 7.765625 -8.75 7.609375 -8.625 C 7.460938 -8.5 7.253906 -8.4375 6.984375 -8.4375 L 2.828125 -8.4375 L 2.828125 -5.71875 L 6.703125 -5.71875 C 6.972656 -5.71875 7.179688 -5.65625 7.328125 -5.53125 C 7.484375 -5.414062 7.5625 -5.242188 7.5625 -5.015625 C 7.5625 -4.785156 7.484375 -4.609375 7.328125 -4.484375 C 7.179688 -4.367188 6.972656 -4.3125 6.703125 -4.3125 L 2.828125 -4.3125 L 2.828125 -1.421875 L 6.984375 -1.421875 C 7.253906 -1.421875 7.460938 -1.359375 7.609375 -1.234375 C 7.765625 -1.109375 7.84375 -0.929688 7.84375 -0.703125 C 7.84375 -0.472656 7.765625 -0.296875 7.609375 -0.171875 C 7.460938 -0.0546875 7.253906 0 6.984375 0 Z M 1.9375 0 "/></g></g></g><g fill="#ffffff" fill-opacity="1"><g transform="translate(195.446079, 457.391974)"><g><path d="M 1.9375 0 C 1.664062 0 1.453125 -0.0703125 1.296875 -0.21875 C 1.140625 -0.375 1.0625 -0.585938 1.0625 -0.859375 L 1.0625 -9.015625 C 1.0625 -9.285156 1.140625 -9.492188 1.296875 -9.640625 C 1.453125 -9.796875 1.664062 -9.875 1.9375 -9.875 L 4.703125 -9.875 C 6.316406 -9.875 7.566406 -9.441406 8.453125 -8.578125 C 9.347656 -7.710938 9.796875 -6.5 9.796875 -4.9375 C 9.796875 -3.375 9.347656 -2.160156 8.453125 -1.296875 C 7.566406 -0.429688 6.316406 0 4.703125 0 Z M 4.59375 -1.46875 C 6.863281 -1.46875 8 -2.625 8 -4.9375 C 8 -7.25 6.863281 -8.40625 4.59375 -8.40625 L 2.875 -8.40625 L 2.875 -1.46875 Z M 4.59375 -1.46875 "/></g></g></g><g clip-path="url(#e54ebefa19)"><g clip-path="url(#3164e9bdad)"><path fill="#1a2529" d="M 78.003906 57.742188 L 84.824219 57.742188 L 84.824219 119.996094 L 78.003906 119.996094 Z M 78.003906 57.742188 " fill-opacity="1" fill-rule="nonzero"/></g></g><g fill="#e8fff7" fill-opacity="1"><g transform="translate(108.477862, 103.110402)"><g><path d="M 27.328125 -30.953125 C 28.171875 -30.953125 28.835938 -30.695312 29.328125 -30.1875 C 29.828125 -29.675781 30.078125 -29 30.078125 -28.15625 L 30.078125 -2.578125 C 30.078125 -1.734375 29.820312 -1.046875 29.3125 -0.515625 C 28.800781 0.00390625 28.140625 0.265625 27.328125 0.265625 C 26.484375 0.265625 25.816406 0.00390625 25.328125 -0.515625 C 24.835938 -1.046875 24.59375 -1.734375 24.59375 -2.578125 L 24.59375 -13.34375 L 8.84375 -13.34375 L 8.84375 -2.578125 C 8.84375 -1.734375 8.585938 -1.046875 8.078125 -0.515625 C 7.578125 0.00390625 6.90625 0.265625 6.0625 0.265625 C 5.25 0.265625 4.585938 0.00390625 4.078125 -0.515625 C 3.566406 -1.046875 3.3125 -1.734375 3.3125 -2.578125 L 3.3125 -28.15625 C 3.3125 -29 3.554688 -29.675781 4.046875 -30.1875 C 4.546875 -30.695312 5.21875 -30.953125 6.0625 -30.953125 C 6.90625 -30.953125 7.578125 -30.695312 8.078125 -30.1875 C 8.585938 -29.675781 8.84375 -29 8.84375 -28.15625 L 8.84375 -17.875 L 24.59375 -17.875 L 24.59375 -28.15625 C 24.59375 -29 24.835938 -29.675781 25.328125 -30.1875 C 25.816406 -30.695312 26.484375 -30.953125 27.328125 -30.953125 Z M 27.328125 -30.953125 "/></g></g></g><g fill="#e8fff7" fill-opacity="1"><g transform="translate(141.869146, 103.110402)"><g><path d="M 5.53125 0.265625 C 4.75 0.265625 4.101562 0.0390625 3.59375 -0.40625 C 3.082031 -0.863281 2.828125 -1.515625 2.828125 -2.359375 L 2.828125 -19.1875 C 2.828125 -20.03125 3.082031 -20.664062 3.59375 -21.09375 C 4.101562 -21.53125 4.75 -21.75 5.53125 -21.75 C 6.320312 -21.75 6.976562 -21.53125 7.5 -21.09375 C 8.019531 -20.664062 8.28125 -20.03125 8.28125 -19.1875 L 8.28125 -2.359375 C 8.28125 -1.515625 8.019531 -0.863281 7.5 -0.40625 C 6.976562 0.0390625 6.320312 0.265625 5.53125 0.265625 Z M 5.546875 -25.640625 C 4.554688 -25.640625 3.769531 -25.90625 3.1875 -26.4375 C 2.601562 -26.976562 2.3125 -27.679688 2.3125 -28.546875 C 2.3125 -29.421875 2.601562 -30.117188 3.1875 -30.640625 C 3.769531 -31.171875 4.554688 -31.4375 5.546875 -31.4375 C 6.503906 -31.4375 7.28125 -31.171875 7.875 -30.640625 C 8.46875 -30.117188 8.765625 -29.421875 8.765625 -28.546875 C 8.765625 -27.679688 8.472656 -26.976562 7.890625 -26.4375 C 7.304688 -25.90625 6.523438 -25.640625 5.546875 -25.640625 Z M 5.546875 -25.640625 "/></g></g></g><g fill="#e8fff7" fill-opacity="1"><g transform="translate(152.941452, 103.110402)"><g><path d="M 14.734375 -21.75 C 15.492188 -21.8125 16.085938 -21.648438 16.515625 -21.265625 C 16.953125 -20.890625 17.171875 -20.328125 17.171875 -19.578125 C 17.171875 -18.785156 16.984375 -18.203125 16.609375 -17.828125 C 16.234375 -17.453125 15.550781 -17.207031 14.5625 -17.09375 L 13.25 -16.953125 C 11.539062 -16.785156 10.285156 -16.207031 9.484375 -15.21875 C 8.679688 -14.226562 8.28125 -12.992188 8.28125 -11.515625 L 8.28125 -2.359375 C 8.28125 -1.515625 8.019531 -0.863281 7.5 -0.40625 C 6.976562 0.0390625 6.320312 0.265625 5.53125 0.265625 C 4.75 0.265625 4.101562 0.0390625 3.59375 -0.40625 C 3.082031 -0.863281 2.828125 -1.515625 2.828125 -2.359375 L 2.828125 -19.21875 C 2.828125 -20.039062 3.082031 -20.664062 3.59375 -21.09375 C 4.101562 -21.53125 4.738281 -21.75 5.5 -21.75 C 6.25 -21.75 6.851562 -21.535156 7.3125 -21.109375 C 7.78125 -20.691406 8.015625 -20.09375 8.015625 -19.3125 L 8.015625 -17.5625 C 8.566406 -18.84375 9.390625 -19.832031 10.484375 -20.53125 C 11.578125 -21.226562 12.789062 -21.617188 14.125 -21.703125 Z M 14.734375 -21.75 "/></g></g></g><g fill="#e8fff7" fill-opacity="1"><g transform="translate(169.637087, 103.110402)"><g><path d="M 12.5625 0.34375 C 10.375 0.34375 8.457031 -0.101562 6.8125 -1 C 5.175781 -1.90625 3.90625 -3.195312 3 -4.875 C 2.101562 -6.5625 1.65625 -8.523438 1.65625 -10.765625 C 1.65625 -13.003906 2.101562 -14.957031 3 -16.625 C 3.90625 -18.300781 5.175781 -19.585938 6.8125 -20.484375 C 8.457031 -21.390625 10.375 -21.84375 12.5625 -21.84375 C 14.738281 -21.84375 16.644531 -21.390625 18.28125 -20.484375 C 19.925781 -19.585938 21.191406 -18.300781 22.078125 -16.625 C 22.960938 -14.957031 23.40625 -13.003906 23.40625 -10.765625 C 23.40625 -8.523438 22.960938 -6.5625 22.078125 -4.875 C 21.191406 -3.195312 19.925781 -1.90625 18.28125 -1 C 16.644531 -0.101562 14.738281 0.34375 12.5625 0.34375 Z M 12.515625 -3.875 C 14.285156 -3.875 15.632812 -4.457031 16.5625 -5.625 C 17.488281 -6.789062 17.953125 -8.503906 17.953125 -10.765625 C 17.953125 -13.003906 17.488281 -14.710938 16.5625 -15.890625 C 15.632812 -17.066406 14.300781 -17.65625 12.5625 -17.65625 C 10.8125 -17.65625 9.460938 -17.066406 8.515625 -15.890625 C 7.578125 -14.710938 7.109375 -13.003906 7.109375 -10.765625 C 7.109375 -8.503906 7.570312 -6.789062 8.5 -5.625 C 9.425781 -4.457031 10.765625 -3.875 12.515625 -3.875 Z M 12.515625 -3.875 "/></g></g></g><g fill="#e8fff7" fill-opacity="1"><g transform="translate(194.702338, 103.110402)"><g><path d="M 5.40625 0.265625 C 4.476562 0.265625 3.707031 -0.046875 3.09375 -0.671875 C 2.476562 -1.296875 2.171875 -2.078125 2.171875 -3.015625 C 2.171875 -3.941406 2.476562 -4.71875 3.09375 -5.34375 C 3.707031 -5.96875 4.476562 -6.28125 5.40625 -6.28125 C 6.332031 -6.28125 7.097656 -5.96875 7.703125 -5.34375 C 8.316406 -4.71875 8.625 -3.941406 8.625 -3.015625 C 8.625 -2.078125 8.316406 -1.296875 7.703125 -0.671875 C 7.097656 -0.046875 6.332031 0.265625 5.40625 0.265625 Z M 5.40625 0.265625 "/></g></g></g><g fill="#ffffff" fill-opacity="1"><g transform="translate(78.005163, 233.244289)"><g><path d="M 8.125 0 C 5.582031 0 4.3125 -1.269531 4.3125 -3.8125 L 4.3125 -35.671875 C 4.3125 -38.210938 5.582031 -39.484375 8.125 -39.484375 L 28.109375 -39.484375 C 30.054688 -39.484375 31.03125 -38.550781 31.03125 -36.6875 C 31.03125 -34.738281 30.054688 -33.765625 28.109375 -33.765625 L 11.203125 -33.765625 L 11.203125 -22.90625 L 26.875 -22.90625 C 28.820312 -22.90625 29.796875 -21.953125 29.796875 -20.046875 C 29.796875 -18.140625 28.820312 -17.1875 26.875 -17.1875 L 11.203125 -17.1875 L 11.203125 -5.71875 L 28.109375 -5.71875 C 30.054688 -5.71875 31.03125 -4.765625 31.03125 -2.859375 C 31.03125 -0.953125 30.054688 0 28.109375 0 Z M 8.125 0 "/></g></g></g><g fill="#ffffff" fill-opacity="1"><g transform="translate(111.432492, 233.244289)"><g><path d="M 5.546875 0.28125 C 4.722656 0.28125 4.039062 0.046875 3.5 -0.421875 C 2.957031 -0.890625 2.675781 -1.492188 2.65625 -2.234375 C 2.632812 -2.984375 2.941406 -3.769531 3.578125 -4.59375 L 11.3125 -14.109375 L 4.140625 -22.953125 C 3.472656 -23.773438 3.15625 -24.5625 3.1875 -25.3125 C 3.226562 -26.0625 3.519531 -26.664062 4.0625 -27.125 C 4.601562 -27.59375 5.285156 -27.828125 6.109375 -27.828125 C 6.960938 -27.828125 7.675781 -27.675781 8.25 -27.375 C 8.832031 -27.082031 9.367188 -26.617188 9.859375 -25.984375 L 15.34375 -18.921875 L 20.890625 -25.984375 C 21.410156 -26.617188 21.953125 -27.082031 22.515625 -27.375 C 23.078125 -27.675781 23.765625 -27.828125 24.578125 -27.828125 C 25.441406 -27.828125 26.132812 -27.582031 26.65625 -27.09375 C 27.175781 -26.613281 27.445312 -26 27.46875 -25.25 C 27.488281 -24.507812 27.160156 -23.726562 26.484375 -22.90625 L 19.3125 -14.109375 L 27.109375 -4.59375 C 27.773438 -3.8125 28.085938 -3.046875 28.046875 -2.296875 C 28.015625 -1.546875 27.726562 -0.925781 27.1875 -0.4375 C 26.644531 0.0390625 25.945312 0.28125 25.09375 0.28125 C 23.59375 0.28125 22.359375 -0.332031 21.390625 -1.5625 L 15.28125 -9.234375 L 9.234375 -1.5625 C 8.753906 -0.96875 8.234375 -0.507812 7.671875 -0.1875 C 7.109375 0.125 6.398438 0.28125 5.546875 0.28125 Z M 5.546875 0.28125 "/></g></g></g><g fill="#ffffff" fill-opacity="1"><g transform="translate(142.004224, 233.244289)"><g><path d="M 7.109375 10.53125 C 4.796875 10.53125 3.640625 9.351562 3.640625 7 L 3.640625 -24.296875 C 3.640625 -26.648438 4.78125 -27.828125 7.0625 -27.828125 C 9.375 -27.828125 10.53125 -26.648438 10.53125 -24.296875 L 10.53125 -23.125 C 11.3125 -24.582031 12.484375 -25.75 14.046875 -26.625 C 15.617188 -27.5 17.414062 -27.9375 19.4375 -27.9375 C 21.820312 -27.9375 23.921875 -27.359375 25.734375 -26.203125 C 27.546875 -25.046875 28.953125 -23.410156 29.953125 -21.296875 C 30.960938 -19.191406 31.46875 -16.664062 31.46875 -13.71875 C 31.46875 -10.8125 30.960938 -8.28125 29.953125 -6.125 C 28.953125 -3.976562 27.554688 -2.328125 25.765625 -1.171875 C 23.972656 -0.015625 21.863281 0.5625 19.4375 0.5625 C 17.488281 0.5625 15.738281 0.144531 14.1875 -0.6875 C 12.644531 -1.53125 11.460938 -2.664062 10.640625 -4.09375 L 10.640625 7 C 10.640625 9.351562 9.460938 10.53125 7.109375 10.53125 Z M 17.46875 -4.765625 C 19.5625 -4.765625 21.242188 -5.519531 22.515625 -7.03125 C 23.785156 -8.539062 24.421875 -10.769531 24.421875 -13.71875 C 24.421875 -16.707031 23.785156 -18.9375 22.515625 -20.40625 C 21.242188 -21.882812 19.5625 -22.625 17.46875 -22.625 C 15.382812 -22.625 13.707031 -21.882812 12.4375 -20.40625 C 11.164062 -18.9375 10.53125 -16.707031 10.53125 -13.71875 C 10.53125 -10.769531 11.164062 -8.539062 12.4375 -7.03125 C 13.707031 -5.519531 15.382812 -4.765625 17.46875 -4.765625 Z M 17.46875 -4.765625 "/></g></g></g><g fill="#ffffff" fill-opacity="1"><g transform="translate(175.599531, 233.244289)"><g><path d="M 17.140625 0.5625 C 14.035156 0.5625 11.363281 -0.015625 9.125 -1.171875 C 6.882812 -2.328125 5.15625 -3.96875 3.9375 -6.09375 C 2.726562 -8.226562 2.125 -10.75 2.125 -13.65625 C 2.125 -16.5 2.710938 -18.984375 3.890625 -21.109375 C 5.066406 -23.234375 6.691406 -24.898438 8.765625 -26.109375 C 10.835938 -27.328125 13.195312 -27.9375 15.84375 -27.9375 C 19.726562 -27.9375 22.800781 -26.703125 25.0625 -24.234375 C 27.320312 -21.773438 28.453125 -18.421875 28.453125 -14.171875 C 28.453125 -12.785156 27.554688 -12.09375 25.765625 -12.09375 L 8.84375 -12.09375 C 9.363281 -7.207031 12.164062 -4.765625 17.25 -4.765625 C 18.21875 -4.765625 19.304688 -4.882812 20.515625 -5.125 C 21.734375 -5.363281 22.882812 -5.785156 23.96875 -6.390625 C 24.9375 -6.941406 25.753906 -7.113281 26.421875 -6.90625 C 27.097656 -6.707031 27.578125 -6.304688 27.859375 -5.703125 C 28.140625 -5.109375 28.175781 -4.445312 27.96875 -3.71875 C 27.757812 -2.988281 27.226562 -2.363281 26.375 -1.84375 C 25.070312 -1.019531 23.566406 -0.410156 21.859375 -0.015625 C 20.160156 0.367188 18.585938 0.5625 17.140625 0.5625 Z M 16.125 -23.1875 C 14.070312 -23.1875 12.410156 -22.550781 11.140625 -21.28125 C 9.867188 -20.007812 9.101562 -18.289062 8.84375 -16.125 L 22.625 -16.125 C 22.476562 -18.40625 21.851562 -20.148438 20.75 -21.359375 C 19.644531 -22.578125 18.101562 -23.1875 16.125 -23.1875 Z M 16.125 -23.1875 "/></g></g></g><g fill="#ffffff" fill-opacity="1"><g transform="translate(205.94729, 233.244289)"><g><path d="M 7.21875 0.453125 C 4.832031 0.453125 3.640625 -0.742188 3.640625 -3.140625 L 3.640625 -24.296875 C 3.640625 -26.648438 4.78125 -27.828125 7.0625 -27.828125 C 9.332031 -27.828125 10.46875 -26.648438 10.46875 -24.296875 L 10.46875 -22.5625 C 11.8125 -25.78125 14.6875 -27.570312 19.09375 -27.9375 C 20.695312 -28.125 21.59375 -27.210938 21.78125 -25.203125 C 21.96875 -23.222656 21 -22.117188 18.875 -21.890625 L 17.640625 -21.78125 C 13.046875 -21.332031 10.75 -18.984375 10.75 -14.734375 L 10.75 -3.140625 C 10.75 -0.742188 9.570312 0.453125 7.21875 0.453125 Z M 7.21875 0.453125 "/></g></g></g><g fill="#ffffff" fill-opacity="1"><g transform="translate(227.896221, 233.244289)"><g><path d="M 7.109375 -32.984375 C 5.804688 -32.984375 4.789062 -33.304688 4.0625 -33.953125 C 3.332031 -34.609375 2.96875 -35.519531 2.96875 -36.6875 C 2.96875 -37.875 3.332031 -38.785156 4.0625 -39.421875 C 4.789062 -40.054688 5.804688 -40.375 7.109375 -40.375 C 9.867188 -40.375 11.25 -39.144531 11.25 -36.6875 C 11.25 -34.21875 9.867188 -32.984375 7.109375 -32.984375 Z M 7.109375 0.390625 C 5.992188 0.390625 5.132812 0.0546875 4.53125 -0.609375 C 3.9375 -1.285156 3.640625 -2.222656 3.640625 -3.421875 L 3.640625 -23.96875 C 3.640625 -26.507812 4.796875 -27.78125 7.109375 -27.78125 C 9.460938 -27.78125 10.640625 -26.507812 10.640625 -23.96875 L 10.640625 -3.421875 C 10.640625 -2.222656 10.335938 -1.285156 9.734375 -0.609375 C 9.140625 0.0546875 8.265625 0.390625 7.109375 0.390625 Z M 7.109375 0.390625 "/></g></g></g><g fill="#ffffff" fill-opacity="1"><g transform="translate(242.174222, 233.244289)"><g><path d="M 17.140625 0.5625 C 14.035156 0.5625 11.363281 -0.015625 9.125 -1.171875 C 6.882812 -2.328125 5.15625 -3.96875 3.9375 -6.09375 C 2.726562 -8.226562 2.125 -10.75 2.125 -13.65625 C 2.125 -16.5 2.710938 -18.984375 3.890625 -21.109375 C 5.066406 -23.234375 6.691406 -24.898438 8.765625 -26.109375 C 10.835938 -27.328125 13.195312 -27.9375 15.84375 -27.9375 C 19.726562 -27.9375 22.800781 -26.703125 25.0625 -24.234375 C 27.320312 -21.773438 28.453125 -18.421875 28.453125 -14.171875 C 28.453125 -12.785156 27.554688 -12.09375 25.765625 -12.09375 L 8.84375 -12.09375 C 9.363281 -7.207031 12.164062 -4.765625 17.25 -4.765625 C 18.21875 -4.765625 19.304688 -4.882812 20.515625 -5.125 C 21.734375 -5.363281 22.882812 -5.785156 23.96875 -6.390625 C 24.9375 -6.941406 25.753906 -7.113281 26.421875 -6.90625 C 27.097656 -6.707031 27.578125 -6.304688 27.859375 -5.703125 C 28.140625 -5.109375 28.175781 -4.445312 27.96875 -3.71875 C 27.757812 -2.988281 27.226562 -2.363281 26.375 -1.84375 C 25.070312 -1.019531 23.566406 -0.410156 21.859375 -0.015625 C 20.160156 0.367188 18.585938 0.5625 17.140625 0.5625 Z M 16.125 -23.1875 C 14.070312 -23.1875 12.410156 -22.550781 11.140625 -21.28125 C 9.867188 -20.007812 9.101562 -18.289062 8.84375 -16.125 L 22.625 -16.125 C 22.476562 -18.40625 21.851562 -20.148438 20.75 -21.359375 C 19.644531 -22.578125 18.101562 -23.1875 16.125 -23.1875 Z M 16.125 -23.1875 "/></g></g></g><g fill="#ffffff" fill-opacity="1"><g transform="translate(272.521971, 233.244289)"><g><path d="M 7.109375 0.453125 C 4.796875 0.453125 3.640625 -0.742188 3.640625 -3.140625 L 3.640625 -24.296875 C 3.640625 -26.648438 4.78125 -27.828125 7.0625 -27.828125 C 9.332031 -27.828125 10.46875 -26.648438 10.46875 -24.296875 L 10.46875 -23.125 C 11.40625 -24.695312 12.664062 -25.890625 14.25 -26.703125 C 15.832031 -27.523438 17.613281 -27.9375 19.59375 -27.9375 C 26.050781 -27.9375 29.28125 -24.1875 29.28125 -16.6875 L 29.28125 -3.140625 C 29.28125 -0.742188 28.125 0.453125 25.8125 0.453125 C 23.457031 0.453125 22.28125 -0.742188 22.28125 -3.140625 L 22.28125 -16.359375 C 22.28125 -18.484375 21.878906 -20.03125 21.078125 -21 C 20.273438 -21.96875 19.035156 -22.453125 17.359375 -22.453125 C 15.304688 -22.453125 13.671875 -21.804688 12.453125 -20.515625 C 11.242188 -19.234375 10.640625 -17.53125 10.640625 -15.40625 L 10.640625 -3.140625 C 10.640625 -0.742188 9.460938 0.453125 7.109375 0.453125 Z M 7.109375 0.453125 "/></g></g></g><g fill="#ffffff" fill-opacity="1"><g transform="translate(305.277384, 233.244289)"><g><path d="M 16.296875 0.5625 C 13.421875 0.5625 10.914062 -0.0234375 8.78125 -1.203125 C 6.65625 -2.378906 5.015625 -4.050781 3.859375 -6.21875 C 2.703125 -8.382812 2.125 -10.921875 2.125 -13.828125 C 2.125 -16.742188 2.703125 -19.253906 3.859375 -21.359375 C 5.015625 -23.472656 6.65625 -25.097656 8.78125 -26.234375 C 10.914062 -27.367188 13.421875 -27.9375 16.296875 -27.9375 C 17.523438 -27.9375 18.859375 -27.769531 20.296875 -27.4375 C 21.734375 -27.101562 23.085938 -26.546875 24.359375 -25.765625 C 25.109375 -25.316406 25.546875 -24.734375 25.671875 -24.015625 C 25.804688 -23.304688 25.710938 -22.65625 25.390625 -22.0625 C 25.078125 -21.46875 24.613281 -21.039062 24 -20.78125 C 23.382812 -20.519531 22.679688 -20.613281 21.890625 -21.0625 C 20.171875 -22.03125 18.507812 -22.515625 16.90625 -22.515625 C 14.476562 -22.515625 12.601562 -21.753906 11.28125 -20.234375 C 9.957031 -18.722656 9.296875 -16.570312 9.296875 -13.78125 C 9.296875 -11.007812 9.957031 -8.832031 11.28125 -7.25 C 12.601562 -5.664062 14.476562 -4.875 16.90625 -4.875 C 18.507812 -4.875 20.171875 -5.335938 21.890625 -6.265625 C 22.679688 -6.710938 23.375 -6.804688 23.96875 -6.546875 C 24.5625 -6.285156 24.988281 -5.847656 25.25 -5.234375 C 25.507812 -4.617188 25.566406 -3.960938 25.421875 -3.265625 C 25.273438 -2.578125 24.847656 -2.007812 24.140625 -1.5625 C 22.898438 -0.820312 21.585938 -0.285156 20.203125 0.046875 C 18.828125 0.390625 17.523438 0.5625 16.296875 0.5625 Z M 16.296875 0.5625 "/></g></g></g><g fill="#ffffff" fill-opacity="1"><g transform="translate(331.70568, 233.244289)"><g><path d="M 17.140625 0.5625 C 14.035156 0.5625 11.363281 -0.015625 9.125 -1.171875 C 6.882812 -2.328125 5.15625 -3.96875 3.9375 -6.09375 C 2.726562 -8.226562 2.125 -10.75 2.125 -13.65625 C 2.125 -16.5 2.710938 -18.984375 3.890625 -21.109375 C 5.066406 -23.234375 6.691406 -24.898438 8.765625 -26.109375 C 10.835938 -27.328125 13.195312 -27.9375 15.84375 -27.9375 C 19.726562 -27.9375 22.800781 -26.703125 25.0625 -24.234375 C 27.320312 -21.773438 28.453125 -18.421875 28.453125 -14.171875 C 28.453125 -12.785156 27.554688 -12.09375 25.765625 -12.09375 L 8.84375 -12.09375 C 9.363281 -7.207031 12.164062 -4.765625 17.25 -4.765625 C 18.21875 -4.765625 19.304688 -4.882812 20.515625 -5.125 C 21.734375 -5.363281 22.882812 -5.785156 23.96875 -6.390625 C 24.9375 -6.941406 25.753906 -7.113281 26.421875 -6.90625 C 27.097656 -6.707031 27.578125 -6.304688 27.859375 -5.703125 C 28.140625 -5.109375 28.175781 -4.445312 27.96875 -3.71875 C 27.757812 -2.988281 27.226562 -2.363281 26.375 -1.84375 C 25.070312 -1.019531 23.566406 -0.410156 21.859375 -0.015625 C 20.160156 0.367188 18.585938 0.5625 17.140625 0.5625 Z M 16.125 -23.1875 C 14.070312 -23.1875 12.410156 -22.550781 11.140625 -21.28125 C 9.867188 -20.007812 9.101562 -18.289062 8.84375 -16.125 L 22.625 -16.125 C 22.476562 -18.40625 21.851562 -20.148438 20.75 -21.359375 C 19.644531 -22.578125 18.101562 -23.1875 16.125 -23.1875 Z M 16.125 -23.1875 "/></g></g></g><g fill="#ffffff" fill-opacity="1"><g transform="translate(78.005163, 288.744282)"><g><path d="M 17.140625 0.5625 C 14.035156 0.5625 11.363281 -0.015625 9.125 -1.171875 C 6.882812 -2.328125 5.15625 -3.96875 3.9375 -6.09375 C 2.726562 -8.226562 2.125 -10.75 2.125 -13.65625 C 2.125 -16.5 2.710938 -18.984375 3.890625 -21.109375 C 5.066406 -23.234375 6.691406 -24.898438 8.765625 -26.109375 C 10.835938 -27.328125 13.195312 -27.9375 15.84375 -27.9375 C 19.726562 -27.9375 22.800781 -26.703125 25.0625 -24.234375 C 27.320312 -21.773438 28.453125 -18.421875 28.453125 -14.171875 C 28.453125 -12.785156 27.554688 -12.09375 25.765625 -12.09375 L 8.84375 -12.09375 C 9.363281 -7.207031 12.164062 -4.765625 17.25 -4.765625 C 18.21875 -4.765625 19.304688 -4.882812 20.515625 -5.125 C 21.734375 -5.363281 22.882812 -5.785156 23.96875 -6.390625 C 24.9375 -6.941406 25.753906 -7.113281 26.421875 -6.90625 C 27.097656 -6.707031 27.578125 -6.304688 27.859375 -5.703125 C 28.140625 -5.109375 28.175781 -4.445312 27.96875 -3.71875 C 27.757812 -2.988281 27.226562 -2.363281 26.375 -1.84375 C 25.070312 -1.019531 23.566406 -0.410156 21.859375 -0.015625 C 20.160156 0.367188 18.585938 0.5625 17.140625 0.5625 Z M 16.125 -23.1875 C 14.070312 -23.1875 12.410156 -22.550781 11.140625 -21.28125 C 9.867188 -20.007812 9.101562 -18.289062 8.84375 -16.125 L 22.625 -16.125 C 22.476562 -18.40625 21.851562 -20.148438 20.75 -21.359375 C 19.644531 -22.578125 18.101562 -23.1875 16.125 -23.1875 Z M 16.125 -23.1875 "/></g></g></g><g fill="#ffffff" fill-opacity="1"><g transform="translate(108.352922, 288.744282)"><g><path d="M 5.546875 0.28125 C 4.722656 0.28125 4.039062 0.046875 3.5 -0.421875 C 2.957031 -0.890625 2.675781 -1.492188 2.65625 -2.234375 C 2.632812 -2.984375 2.941406 -3.769531 3.578125 -4.59375 L 11.3125 -14.109375 L 4.140625 -22.953125 C 3.472656 -23.773438 3.15625 -24.5625 3.1875 -25.3125 C 3.226562 -26.0625 3.519531 -26.664062 4.0625 -27.125 C 4.601562 -27.59375 5.285156 -27.828125 6.109375 -27.828125 C 6.960938 -27.828125 7.675781 -27.675781 8.25 -27.375 C 8.832031 -27.082031 9.367188 -26.617188 9.859375 -25.984375 L 15.34375 -18.921875 L 20.890625 -25.984375 C 21.410156 -26.617188 21.953125 -27.082031 22.515625 -27.375 C 23.078125 -27.675781 23.765625 -27.828125 24.578125 -27.828125 C 25.441406 -27.828125 26.132812 -27.582031 26.65625 -27.09375 C 27.175781 -26.613281 27.445312 -26 27.46875 -25.25 C 27.488281 -24.507812 27.160156 -23.726562 26.484375 -22.90625 L 19.3125 -14.109375 L 27.109375 -4.59375 C 27.773438 -3.8125 28.085938 -3.046875 28.046875 -2.296875 C 28.015625 -1.546875 27.726562 -0.925781 27.1875 -0.4375 C 26.644531 0.0390625 25.945312 0.28125 25.09375 0.28125 C 23.59375 0.28125 22.359375 -0.332031 21.390625 -1.5625 L 15.28125 -9.234375 L 9.234375 -1.5625 C 8.753906 -0.96875 8.234375 -0.507812 7.671875 -0.1875 C 7.109375 0.125 6.398438 0.28125 5.546875 0.28125 Z M 5.546875 0.28125 "/></g></g></g><g fill="#ffffff" fill-opacity="1"><g transform="translate(138.924654, 288.744282)"><g><path d="M 16.296875 0.5625 C 13.421875 0.5625 10.914062 -0.0234375 8.78125 -1.203125 C 6.65625 -2.378906 5.015625 -4.050781 3.859375 -6.21875 C 2.703125 -8.382812 2.125 -10.921875 2.125 -13.828125 C 2.125 -16.742188 2.703125 -19.253906 3.859375 -21.359375 C 5.015625 -23.472656 6.65625 -25.097656 8.78125 -26.234375 C 10.914062 -27.367188 13.421875 -27.9375 16.296875 -27.9375 C 17.523438 -27.9375 18.859375 -27.769531 20.296875 -27.4375 C 21.734375 -27.101562 23.085938 -26.546875 24.359375 -25.765625 C 25.109375 -25.316406 25.546875 -24.734375 25.671875 -24.015625 C 25.804688 -23.304688 25.710938 -22.65625 25.390625 -22.0625 C 25.078125 -21.46875 24.613281 -21.039062 24 -20.78125 C 23.382812 -20.519531 22.679688 -20.613281 21.890625 -21.0625 C 20.171875 -22.03125 18.507812 -22.515625 16.90625 -22.515625 C 14.476562 -22.515625 12.601562 -21.753906 11.28125 -20.234375 C 9.957031 -18.722656 9.296875 -16.570312 9.296875 -13.78125 C 9.296875 -11.007812 9.957031 -8.832031 11.28125 -7.25 C 12.601562 -5.664062 14.476562 -4.875 16.90625 -4.875 C 18.507812 -4.875 20.171875 -5.335938 21.890625 -6.265625 C 22.679688 -6.710938 23.375 -6.804688 23.96875 -6.546875 C 24.5625 -6.285156 24.988281 -5.847656 25.25 -5.234375 C 25.507812 -4.617188 25.566406 -3.960938 25.421875 -3.265625 C 25.273438 -2.578125 24.847656 -2.007812 24.140625 -1.5625 C 22.898438 -0.820312 21.585938 -0.285156 20.203125 0.046875 C 18.828125 0.390625 17.523438 0.5625 16.296875 0.5625 Z M 16.296875 0.5625 "/></g></g></g><g fill="#ffffff" fill-opacity="1"><g transform="translate(165.352961, 288.744282)"><g><path d="M 17.140625 0.5625 C 14.035156 0.5625 11.363281 -0.015625 9.125 -1.171875 C 6.882812 -2.328125 5.15625 -3.96875 3.9375 -6.09375 C 2.726562 -8.226562 2.125 -10.75 2.125 -13.65625 C 2.125 -16.5 2.710938 -18.984375 3.890625 -21.109375 C 5.066406 -23.234375 6.691406 -24.898438 8.765625 -26.109375 C 10.835938 -27.328125 13.195312 -27.9375 15.84375 -27.9375 C 19.726562 -27.9375 22.800781 -26.703125 25.0625 -24.234375 C 27.320312 -21.773438 28.453125 -18.421875 28.453125 -14.171875 C 28.453125 -12.785156 27.554688 -12.09375 25.765625 -12.09375 L 8.84375 -12.09375 C 9.363281 -7.207031 12.164062 -4.765625 17.25 -4.765625 C 18.21875 -4.765625 19.304688 -4.882812 20.515625 -5.125 C 21.734375 -5.363281 22.882812 -5.785156 23.96875 -6.390625 C 24.9375 -6.941406 25.753906 -7.113281 26.421875 -6.90625 C 27.097656 -6.707031 27.578125 -6.304688 27.859375 -5.703125 C 28.140625 -5.109375 28.175781 -4.445312 27.96875 -3.71875 C 27.757812 -2.988281 27.226562 -2.363281 26.375 -1.84375 C 25.070312 -1.019531 23.566406 -0.410156 21.859375 -0.015625 C 20.160156 0.367188 18.585938 0.5625 17.140625 0.5625 Z M 16.125 -23.1875 C 14.070312 -23.1875 12.410156 -22.550781 11.140625 -21.28125 C 9.867188 -20.007812 9.101562 -18.289062 8.84375 -16.125 L 22.625 -16.125 C 22.476562 -18.40625 21.851562 -20.148438 20.75 -21.359375 C 19.644531 -22.578125 18.101562 -23.1875 16.125 -23.1875 Z M 16.125 -23.1875 "/></g></g></g><g fill="#ffffff" fill-opacity="1"><g transform="translate(195.700721, 288.744282)"><g><path d="M 12.984375 0.5625 C 6.753906 0.5625 3.640625 -2.925781 3.640625 -9.90625 L 3.640625 -36.40625 C 3.640625 -38.75 4.796875 -39.921875 7.109375 -39.921875 C 9.460938 -39.921875 10.640625 -38.75 10.640625 -36.40625 L 10.640625 -10.25 C 10.640625 -6.882812 12.039062 -5.203125 14.84375 -5.203125 C 15.132812 -5.203125 15.410156 -5.210938 15.671875 -5.234375 C 15.941406 -5.253906 16.207031 -5.28125 16.46875 -5.3125 C 16.988281 -5.394531 17.34375 -5.257812 17.53125 -4.90625 C 17.71875 -4.550781 17.8125 -3.832031 17.8125 -2.75 C 17.8125 -1.8125 17.625 -1.082031 17.25 -0.5625 C 16.875 -0.0390625 16.257812 0.273438 15.40625 0.390625 C 14.613281 0.503906 13.804688 0.5625 12.984375 0.5625 Z M 12.984375 0.5625 "/></g></g></g><g fill="#ffffff" fill-opacity="1"><g transform="translate(213.562222, 288.744282)"><g><path d="M 12.984375 0.5625 C 6.753906 0.5625 3.640625 -2.925781 3.640625 -9.90625 L 3.640625 -36.40625 C 3.640625 -38.75 4.796875 -39.921875 7.109375 -39.921875 C 9.460938 -39.921875 10.640625 -38.75 10.640625 -36.40625 L 10.640625 -10.25 C 10.640625 -6.882812 12.039062 -5.203125 14.84375 -5.203125 C 15.132812 -5.203125 15.410156 -5.210938 15.671875 -5.234375 C 15.941406 -5.253906 16.207031 -5.28125 16.46875 -5.3125 C 16.988281 -5.394531 17.34375 -5.257812 17.53125 -4.90625 C 17.71875 -4.550781 17.8125 -3.832031 17.8125 -2.75 C 17.8125 -1.8125 17.625 -1.082031 17.25 -0.5625 C 16.875 -0.0390625 16.257812 0.273438 15.40625 0.390625 C 14.613281 0.503906 13.804688 0.5625 12.984375 0.5625 Z M 12.984375 0.5625 "/></g></g></g><g fill="#ffffff" fill-opacity="1"><g transform="translate(231.423724, 288.744282)"><g><path d="M 17.140625 0.5625 C 14.035156 0.5625 11.363281 -0.015625 9.125 -1.171875 C 6.882812 -2.328125 5.15625 -3.96875 3.9375 -6.09375 C 2.726562 -8.226562 2.125 -10.75 2.125 -13.65625 C 2.125 -16.5 2.710938 -18.984375 3.890625 -21.109375 C 5.066406 -23.234375 6.691406 -24.898438 8.765625 -26.109375 C 10.835938 -27.328125 13.195312 -27.9375 15.84375 -27.9375 C 19.726562 -27.9375 22.800781 -26.703125 25.0625 -24.234375 C 27.320312 -21.773438 28.453125 -18.421875 28.453125 -14.171875 C 28.453125 -12.785156 27.554688 -12.09375 25.765625 -12.09375 L 8.84375 -12.09375 C 9.363281 -7.207031 12.164062 -4.765625 17.25 -4.765625 C 18.21875 -4.765625 19.304688 -4.882812 20.515625 -5.125 C 21.734375 -5.363281 22.882812 -5.785156 23.96875 -6.390625 C 24.9375 -6.941406 25.753906 -7.113281 26.421875 -6.90625 C 27.097656 -6.707031 27.578125 -6.304688 27.859375 -5.703125 C 28.140625 -5.109375 28.175781 -4.445312 27.96875 -3.71875 C 27.757812 -2.988281 27.226562 -2.363281 26.375 -1.84375 C 25.070312 -1.019531 23.566406 -0.410156 21.859375 -0.015625 C 20.160156 0.367188 18.585938 0.5625 17.140625 0.5625 Z M 16.125 -23.1875 C 14.070312 -23.1875 12.410156 -22.550781 11.140625 -21.28125 C 9.867188 -20.007812 9.101562 -18.289062 8.84375 -16.125 L 22.625 -16.125 C 22.476562 -18.40625 21.851562 -20.148438 20.75 -21.359375 C 19.644531 -22.578125 18.101562 -23.1875 16.125 -23.1875 Z M 16.125 -23.1875 "/></g></g></g><g fill="#ffffff" fill-opacity="1"><g transform="translate(261.771483, 288.744282)"><g><path d="M 7.109375 0.453125 C 4.796875 0.453125 3.640625 -0.742188 3.640625 -3.140625 L 3.640625 -24.296875 C 3.640625 -26.648438 4.78125 -27.828125 7.0625 -27.828125 C 9.332031 -27.828125 10.46875 -26.648438 10.46875 -24.296875 L 10.46875 -23.125 C 11.40625 -24.695312 12.664062 -25.890625 14.25 -26.703125 C 15.832031 -27.523438 17.613281 -27.9375 19.59375 -27.9375 C 26.050781 -27.9375 29.28125 -24.1875 29.28125 -16.6875 L 29.28125 -3.140625 C 29.28125 -0.742188 28.125 0.453125 25.8125 0.453125 C 23.457031 0.453125 22.28125 -0.742188 22.28125 -3.140625 L 22.28125 -16.359375 C 22.28125 -18.484375 21.878906 -20.03125 21.078125 -21 C 20.273438 -21.96875 19.035156 -22.453125 17.359375 -22.453125 C 15.304688 -22.453125 13.671875 -21.804688 12.453125 -20.515625 C 11.242188 -19.234375 10.640625 -17.53125 10.640625 -15.40625 L 10.640625 -3.140625 C 10.640625 -0.742188 9.460938 0.453125 7.109375 0.453125 Z M 7.109375 0.453125 "/></g></g></g><g fill="#ffffff" fill-opacity="1"><g transform="translate(294.526896, 288.744282)"><g><path d="M 16.296875 0.5625 C 13.421875 0.5625 10.914062 -0.0234375 8.78125 -1.203125 C 6.65625 -2.378906 5.015625 -4.050781 3.859375 -6.21875 C 2.703125 -8.382812 2.125 -10.921875 2.125 -13.828125 C 2.125 -16.742188 2.703125 -19.253906 3.859375 -21.359375 C 5.015625 -23.472656 6.65625 -25.097656 8.78125 -26.234375 C 10.914062 -27.367188 13.421875 -27.9375 16.296875 -27.9375 C 17.523438 -27.9375 18.859375 -27.769531 20.296875 -27.4375 C 21.734375 -27.101562 23.085938 -26.546875 24.359375 -25.765625 C 25.109375 -25.316406 25.546875 -24.734375 25.671875 -24.015625 C 25.804688 -23.304688 25.710938 -22.65625 25.390625 -22.0625 C 25.078125 -21.46875 24.613281 -21.039062 24 -20.78125 C 23.382812 -20.519531 22.679688 -20.613281 21.890625 -21.0625 C 20.171875 -22.03125 18.507812 -22.515625 16.90625 -22.515625 C 14.476562 -22.515625 12.601562 -21.753906 11.28125 -20.234375 C 9.957031 -18.722656 9.296875 -16.570312 9.296875 -13.78125 C 9.296875 -11.007812 9.957031 -8.832031 11.28125 -7.25 C 12.601562 -5.664062 14.476562 -4.875 16.90625 -4.875 C 18.507812 -4.875 20.171875 -5.335938 21.890625 -6.265625 C 22.679688 -6.710938 23.375 -6.804688 23.96875 -6.546875 C 24.5625 -6.285156 24.988281 -5.847656 25.25 -5.234375 C 25.507812 -4.617188 25.566406 -3.960938 25.421875 -3.265625 C 25.273438 -2.578125 24.847656 -2.007812 24.140625 -1.5625 C 22.898438 -0.820312 21.585938 -0.285156 20.203125 0.046875 C 18.828125 0.390625 17.523438 0.5625 16.296875 0.5625 Z M 16.296875 0.5625 "/></g></g></g><g fill="#ffffff" fill-opacity="1"><g transform="translate(320.955192, 288.744282)"><g><path d="M 17.140625 0.5625 C 14.035156 0.5625 11.363281 -0.015625 9.125 -1.171875 C 6.882812 -2.328125 5.15625 -3.96875 3.9375 -6.09375 C 2.726562 -8.226562 2.125 -10.75 2.125 -13.65625 C 2.125 -16.5 2.710938 -18.984375 3.890625 -21.109375 C 5.066406 -23.234375 6.691406 -24.898438 8.765625 -26.109375 C 10.835938 -27.328125 13.195312 -27.9375 15.84375 -27.9375 C 19.726562 -27.9375 22.800781 -26.703125 25.0625 -24.234375 C 27.320312 -21.773438 28.453125 -18.421875 28.453125 -14.171875 C 28.453125 -12.785156 27.554688 -12.09375 25.765625 -12.09375 L 8.84375 -12.09375 C 9.363281 -7.207031 12.164062 -4.765625 17.25 -4.765625 C 18.21875 -4.765625 19.304688 -4.882812 20.515625 -5.125 C 21.734375 -5.363281 22.882812 -5.785156 23.96875 -6.390625 C 24.9375 -6.941406 25.753906 -7.113281 26.421875 -6.90625 C 27.097656 -6.707031 27.578125 -6.304688 27.859375 -5.703125 C 28.140625 -5.109375 28.175781 -4.445312 27.96875 -3.71875 C 27.757812 -2.988281 27.226562 -2.363281 26.375 -1.84375 C 25.070312 -1.019531 23.566406 -0.410156 21.859375 -0.015625 C 20.160156 0.367188 18.585938 0.5625 17.140625 0.5625 Z M 16.125 -23.1875 C 14.070312 -23.1875 12.410156 -22.550781 11.140625 -21.28125 C 9.867188 -20.007812 9.101562 -18.289062 8.84375 -16.125 L 22.625 -16.125 C 22.476562 -18.40625 21.851562 -20.148438 20.75 -21.359375 C 19.644531 -22.578125 18.101562 -23.1875 16.125 -23.1875 Z M 16.125 -23.1875 "/></g></g></g><g fill="#ffffff" fill-opacity="1"><g transform="translate(78.005163, 344.244276)"><g><path d="M 14.21875 0.453125 C 12.28125 0.453125 10.9375 -0.519531 10.1875 -2.46875 L 2.078125 -23.1875 C 1.585938 -24.488281 1.613281 -25.585938 2.15625 -26.484375 C 2.695312 -27.378906 3.660156 -27.828125 5.046875 -27.828125 C 5.859375 -27.828125 6.523438 -27.628906 7.046875 -27.234375 C 7.578125 -26.847656 8.03125 -26.113281 8.40625 -25.03125 L 14.5625 -8.171875 L 20.890625 -25.484375 C 21.484375 -27.046875 22.546875 -27.828125 24.078125 -27.828125 C 25.648438 -27.828125 26.710938 -27.046875 27.265625 -25.484375 L 33.59375 -8.015625 L 39.8125 -25.203125 C 40.1875 -26.210938 40.660156 -26.898438 41.234375 -27.265625 C 41.816406 -27.640625 42.460938 -27.828125 43.171875 -27.828125 C 44.515625 -27.828125 45.390625 -27.347656 45.796875 -26.390625 C 46.210938 -25.441406 46.179688 -24.375 45.703125 -23.1875 L 37.625 -2.46875 C 36.84375 -0.519531 35.5 0.453125 33.59375 0.453125 C 31.613281 0.453125 30.269531 -0.519531 29.5625 -2.46875 L 23.859375 -17.640625 L 18.25 -2.515625 C 17.539062 -0.535156 16.195312 0.453125 14.21875 0.453125 Z M 14.21875 0.453125 "/></g></g></g><g fill="#ffffff" fill-opacity="1"><g transform="translate(125.766491, 344.244276)"><g><path d="M 7.109375 -32.984375 C 5.804688 -32.984375 4.789062 -33.304688 4.0625 -33.953125 C 3.332031 -34.609375 2.96875 -35.519531 2.96875 -36.6875 C 2.96875 -37.875 3.332031 -38.785156 4.0625 -39.421875 C 4.789062 -40.054688 5.804688 -40.375 7.109375 -40.375 C 9.867188 -40.375 11.25 -39.144531 11.25 -36.6875 C 11.25 -34.21875 9.867188 -32.984375 7.109375 -32.984375 Z M 7.109375 0.390625 C 5.992188 0.390625 5.132812 0.0546875 4.53125 -0.609375 C 3.9375 -1.285156 3.640625 -2.222656 3.640625 -3.421875 L 3.640625 -23.96875 C 3.640625 -26.507812 4.796875 -27.78125 7.109375 -27.78125 C 9.460938 -27.78125 10.640625 -26.507812 10.640625 -23.96875 L 10.640625 -3.421875 C 10.640625 -2.222656 10.335938 -1.285156 9.734375 -0.609375 C 9.140625 0.0546875 8.265625 0.390625 7.109375 0.390625 Z M 7.109375 0.390625 "/></g></g></g><g fill="#ffffff" fill-opacity="1"><g transform="translate(140.044493, 344.244276)"><g><path d="M 16.1875 0.5625 C 8.9375 0.5625 5.3125 -3.019531 5.3125 -10.1875 L 5.3125 -22.125 L 2.40625 -22.125 C 0.539062 -22.125 -0.390625 -23 -0.390625 -24.75 C -0.390625 -26.507812 0.539062 -27.390625 2.40625 -27.390625 L 5.3125 -27.390625 L 5.3125 -32.484375 C 5.3125 -34.835938 6.488281 -36.015625 8.84375 -36.015625 C 11.15625 -36.015625 12.3125 -34.835938 12.3125 -32.484375 L 12.3125 -27.390625 L 18.25 -27.390625 C 20.125 -27.390625 21.0625 -26.507812 21.0625 -24.75 C 21.0625 -23 20.125 -22.125 18.25 -22.125 L 12.3125 -22.125 L 12.3125 -10.578125 C 12.3125 -8.785156 12.703125 -7.441406 13.484375 -6.546875 C 14.273438 -5.648438 15.546875 -5.203125 17.296875 -5.203125 C 17.929688 -5.203125 18.492188 -5.257812 18.984375 -5.375 C 19.472656 -5.488281 19.898438 -5.5625 20.265625 -5.59375 C 20.710938 -5.632812 21.085938 -5.492188 21.390625 -5.171875 C 21.691406 -4.859375 21.84375 -4.21875 21.84375 -3.25 C 21.84375 -2.5 21.71875 -1.832031 21.46875 -1.25 C 21.226562 -0.675781 20.789062 -0.28125 20.15625 -0.0625 C 19.675781 0.09375 19.039062 0.234375 18.25 0.359375 C 17.46875 0.492188 16.78125 0.5625 16.1875 0.5625 Z M 16.1875 0.5625 "/></g></g></g><g fill="#ffffff" fill-opacity="1"><g transform="translate(161.545489, 344.244276)"><g><path d="M 7.109375 0.453125 C 4.796875 0.453125 3.640625 -0.742188 3.640625 -3.140625 L 3.640625 -36.40625 C 3.640625 -38.75 4.796875 -39.921875 7.109375 -39.921875 C 9.460938 -39.921875 10.640625 -38.75 10.640625 -36.40625 L 10.640625 -23.40625 C 11.578125 -24.894531 12.828125 -26.019531 14.390625 -26.78125 C 15.960938 -27.550781 17.695312 -27.9375 19.59375 -27.9375 C 26.050781 -27.9375 29.28125 -24.1875 29.28125 -16.6875 L 29.28125 -3.140625 C 29.28125 -0.742188 28.125 0.453125 25.8125 0.453125 C 23.457031 0.453125 22.28125 -0.742188 22.28125 -3.140625 L 22.28125 -16.359375 C 22.28125 -18.484375 21.878906 -20.03125 21.078125 -21 C 20.273438 -21.96875 19.035156 -22.453125 17.359375 -22.453125 C 15.304688 -22.453125 13.671875 -21.804688 12.453125 -20.515625 C 11.242188 -19.234375 10.640625 -17.53125 10.640625 -15.40625 L 10.640625 -3.140625 C 10.640625 -0.742188 9.460938 0.453125 7.109375 0.453125 Z M 7.109375 0.453125 "/></g></g></g><g fill="#ffffff" fill-opacity="1"><g transform="translate(194.300914, 344.244276)"><g/></g></g><g fill="#ffffff" fill-opacity="1"><g transform="translate(209.474793, 344.244276)"><g><path d="M 13.546875 0.5625 C 6.828125 0.5625 3.46875 -3.207031 3.46875 -10.75 L 3.46875 -24.296875 C 3.46875 -26.648438 4.625 -27.828125 6.9375 -27.828125 C 9.289062 -27.828125 10.46875 -26.648438 10.46875 -24.296875 L 10.46875 -10.640625 C 10.46875 -8.703125 10.859375 -7.265625 11.640625 -6.328125 C 12.429688 -5.390625 13.6875 -4.921875 15.40625 -4.921875 C 17.269531 -4.921875 18.796875 -5.566406 19.984375 -6.859375 C 21.179688 -8.148438 21.78125 -9.859375 21.78125 -11.984375 L 21.78125 -24.296875 C 21.78125 -26.648438 22.9375 -27.828125 25.25 -27.828125 C 27.601562 -27.828125 28.78125 -26.648438 28.78125 -24.296875 L 28.78125 -3.140625 C 28.78125 -0.742188 27.644531 0.453125 25.375 0.453125 C 23.09375 0.453125 21.953125 -0.742188 21.953125 -3.140625 L 21.953125 -4.09375 C 20.117188 -0.988281 17.316406 0.5625 13.546875 0.5625 Z M 13.546875 0.5625 "/></g></g></g><g fill="#ffffff" fill-opacity="1"><g transform="translate(241.894265, 344.244276)"><g><path d="M 13.65625 0.5625 C 12.050781 0.5625 10.351562 0.390625 8.5625 0.046875 C 6.769531 -0.285156 5.164062 -0.863281 3.75 -1.6875 C 2.96875 -2.132812 2.484375 -2.679688 2.296875 -3.328125 C 2.109375 -3.984375 2.132812 -4.597656 2.375 -5.171875 C 2.625 -5.753906 3.035156 -6.175781 3.609375 -6.4375 C 4.191406 -6.695312 4.875 -6.640625 5.65625 -6.265625 C 7.144531 -5.554688 8.539062 -5.0625 9.84375 -4.78125 C 11.15625 -4.507812 12.445312 -4.375 13.71875 -4.375 C 15.507812 -4.375 16.84375 -4.679688 17.71875 -5.296875 C 18.601562 -5.910156 19.046875 -6.722656 19.046875 -7.734375 C 19.046875 -9.296875 17.882812 -10.300781 15.5625 -10.75 L 9.96875 -11.8125 C 5.226562 -12.707031 2.859375 -15.171875 2.859375 -19.203125 C 2.859375 -20.992188 3.351562 -22.539062 4.34375 -23.84375 C 5.332031 -25.15625 6.703125 -26.164062 8.453125 -26.875 C 10.210938 -27.582031 12.226562 -27.9375 14.5 -27.9375 C 17.789062 -27.9375 20.722656 -27.210938 23.296875 -25.765625 C 24.003906 -25.390625 24.421875 -24.875 24.546875 -24.21875 C 24.679688 -23.5625 24.609375 -22.941406 24.328125 -22.359375 C 24.046875 -21.785156 23.609375 -21.378906 23.015625 -21.140625 C 22.421875 -20.898438 21.726562 -20.96875 20.9375 -21.34375 C 19.78125 -21.9375 18.671875 -22.363281 17.609375 -22.625 C 16.546875 -22.882812 15.53125 -23.015625 14.5625 -23.015625 C 12.726562 -23.015625 11.375 -22.695312 10.5 -22.0625 C 9.625 -21.425781 9.1875 -20.585938 9.1875 -19.546875 C 9.1875 -17.898438 10.25 -16.890625 12.375 -16.515625 L 17.96875 -15.453125 C 20.394531 -15.003906 22.234375 -14.179688 23.484375 -12.984375 C 24.742188 -11.796875 25.375 -10.191406 25.375 -8.171875 C 25.375 -5.453125 24.304688 -3.316406 22.171875 -1.765625 C 20.046875 -0.210938 17.207031 0.5625 13.65625 0.5625 Z M 13.65625 0.5625 "/></g></g></g><g fill="#ffffff" fill-opacity="1"><g transform="translate(269.21845, 344.244276)"><g><path d="M 7 0.28125 C 5.726562 0.28125 4.707031 -0.109375 3.9375 -0.890625 C 3.175781 -1.679688 2.796875 -2.691406 2.796875 -3.921875 C 2.796875 -5.117188 3.175781 -6.097656 3.9375 -6.859375 C 4.707031 -7.628906 5.726562 -8.015625 7 -8.015625 C 8.300781 -8.015625 9.316406 -7.628906 10.046875 -6.859375 C 10.773438 -6.097656 11.140625 -5.117188 11.140625 -3.921875 C 11.140625 -2.691406 10.773438 -1.679688 10.046875 -0.890625 C 9.316406 -0.109375 8.300781 0.28125 7 0.28125 Z M 7 0.28125 "/></g></g></g><g fill="#ffffff" fill-opacity="1"><g transform="translate(78.005163, 395.815279)"><g><path d="M 11.09375 -14.578125 C 11.257812 -14.785156 11.460938 -14.890625 11.703125 -14.890625 C 11.890625 -14.890625 12.0625 -14.8125 12.21875 -14.65625 C 12.375 -14.5 12.453125 -14.3125 12.453125 -14.09375 C 12.453125 -13.882812 12.390625 -13.707031 12.265625 -13.5625 L 7.15625 -7.125 L 7.15625 -0.78125 C 7.15625 -0.5 7.070312 -0.28125 6.90625 -0.125 C 6.75 0.03125 6.546875 0.109375 6.296875 0.109375 C 6.046875 0.109375 5.835938 0.03125 5.671875 -0.125 C 5.515625 -0.28125 5.4375 -0.5 5.4375 -0.78125 L 5.4375 -7.140625 L 0.34375 -13.5625 C 0.195312 -13.71875 0.125 -13.894531 0.125 -14.09375 C 0.125 -14.3125 0.203125 -14.5 0.359375 -14.65625 C 0.523438 -14.8125 0.710938 -14.890625 0.921875 -14.890625 C 1.160156 -14.890625 1.363281 -14.785156 1.53125 -14.578125 L 6.328125 -8.46875 Z M 11.09375 -14.578125 "/></g></g></g><g fill="#ffffff" fill-opacity="1"><g transform="translate(90.626209, 395.815279)"><g><path d="M 5.8125 0.140625 C 4.851562 0.140625 4.003906 -0.0703125 3.265625 -0.5 C 2.523438 -0.9375 1.957031 -1.554688 1.5625 -2.359375 C 1.164062 -3.160156 0.96875 -4.097656 0.96875 -5.171875 C 0.96875 -6.234375 1.164062 -7.164062 1.5625 -7.96875 C 1.957031 -8.769531 2.523438 -9.390625 3.265625 -9.828125 C 4.003906 -10.265625 4.851562 -10.484375 5.8125 -10.484375 C 6.78125 -10.484375 7.632812 -10.265625 8.375 -9.828125 C 9.113281 -9.390625 9.679688 -8.769531 10.078125 -7.96875 C 10.484375 -7.164062 10.6875 -6.234375 10.6875 -5.171875 C 10.6875 -4.097656 10.484375 -3.160156 10.078125 -2.359375 C 9.679688 -1.554688 9.113281 -0.9375 8.375 -0.5 C 7.632812 -0.0703125 6.78125 0.140625 5.8125 0.140625 Z M 5.8125 -1.265625 C 6.820312 -1.265625 7.597656 -1.59375 8.140625 -2.25 C 8.679688 -2.914062 8.953125 -3.890625 8.953125 -5.171875 C 8.953125 -6.410156 8.675781 -7.367188 8.125 -8.046875 C 7.582031 -8.734375 6.8125 -9.078125 5.8125 -9.078125 C 4.820312 -9.078125 4.050781 -8.734375 3.5 -8.046875 C 2.957031 -7.367188 2.6875 -6.410156 2.6875 -5.171875 C 2.6875 -3.910156 2.957031 -2.941406 3.5 -2.265625 C 4.039062 -1.597656 4.8125 -1.265625 5.8125 -1.265625 Z M 5.8125 -1.265625 "/></g></g></g><g fill="#ffffff" fill-opacity="1"><g transform="translate(102.28126, 395.815279)"><g><path d="M 9.34375 -10.4375 C 9.613281 -10.4375 9.820312 -10.359375 9.96875 -10.203125 C 10.113281 -10.046875 10.1875 -9.84375 10.1875 -9.59375 L 10.1875 -0.71875 C 10.1875 -0.476562 10.113281 -0.28125 9.96875 -0.125 C 9.820312 0.03125 9.613281 0.109375 9.34375 0.109375 C 9.09375 0.109375 8.894531 0.0351562 8.75 -0.109375 C 8.601562 -0.265625 8.53125 -0.457031 8.53125 -0.6875 L 8.53125 -1.75 C 8.207031 -1.125 7.753906 -0.648438 7.171875 -0.328125 C 6.585938 -0.015625 5.929688 0.140625 5.203125 0.140625 C 3.984375 0.140625 3.066406 -0.195312 2.453125 -0.875 C 1.835938 -1.550781 1.53125 -2.554688 1.53125 -3.890625 L 1.53125 -9.59375 C 1.53125 -9.84375 1.609375 -10.046875 1.765625 -10.203125 C 1.921875 -10.359375 2.128906 -10.4375 2.390625 -10.4375 C 2.660156 -10.4375 2.867188 -10.359375 3.015625 -10.203125 C 3.160156 -10.046875 3.234375 -9.84375 3.234375 -9.59375 L 3.234375 -3.921875 C 3.234375 -3.015625 3.414062 -2.347656 3.78125 -1.921875 C 4.144531 -1.492188 4.71875 -1.28125 5.5 -1.28125 C 6.394531 -1.28125 7.113281 -1.570312 7.65625 -2.15625 C 8.207031 -2.738281 8.484375 -3.503906 8.484375 -4.453125 L 8.484375 -9.59375 C 8.484375 -9.84375 8.5625 -10.046875 8.71875 -10.203125 C 8.875 -10.359375 9.082031 -10.4375 9.34375 -10.4375 Z M 9.34375 -10.4375 "/></g></g></g><g fill="#ffffff" fill-opacity="1"><g transform="translate(114.06231, 395.815279)"><g><path d="M 6.640625 -10.4375 C 7.222656 -10.476562 7.515625 -10.238281 7.515625 -9.71875 C 7.515625 -9.5 7.453125 -9.320312 7.328125 -9.1875 C 7.203125 -9.050781 6.984375 -8.972656 6.671875 -8.953125 L 6.046875 -8.890625 C 5.109375 -8.796875 4.410156 -8.457031 3.953125 -7.875 C 3.503906 -7.300781 3.28125 -6.625 3.28125 -5.84375 L 3.28125 -0.734375 C 3.28125 -0.453125 3.203125 -0.238281 3.046875 -0.09375 C 2.890625 0.0390625 2.6875 0.109375 2.4375 0.109375 C 2.1875 0.109375 1.976562 0.0351562 1.8125 -0.109375 C 1.65625 -0.265625 1.578125 -0.472656 1.578125 -0.734375 L 1.578125 -9.59375 C 1.578125 -9.863281 1.660156 -10.070312 1.828125 -10.21875 C 1.992188 -10.363281 2.195312 -10.4375 2.4375 -10.4375 C 2.65625 -10.4375 2.84375 -10.363281 3 -10.21875 C 3.15625 -10.070312 3.234375 -9.875 3.234375 -9.625 L 3.234375 -8.4375 C 3.523438 -9.050781 3.941406 -9.519531 4.484375 -9.84375 C 5.023438 -10.164062 5.644531 -10.359375 6.34375 -10.421875 Z M 6.640625 -10.4375 "/></g></g></g><g fill="#ffffff" fill-opacity="1"><g transform="translate(121.475346, 395.815279)"><g/></g></g><g fill="#ffffff" fill-opacity="1"><g transform="translate(126.893367, 395.815279)"><g><path d="M 6.71875 -10.484375 C 7.613281 -10.484375 8.40625 -10.257812 9.09375 -9.8125 C 9.78125 -9.363281 10.3125 -8.734375 10.6875 -7.921875 C 11.0625 -7.117188 11.25 -6.1875 11.25 -5.125 C 11.25 -4.0625 11.0625 -3.132812 10.6875 -2.34375 C 10.3125 -1.550781 9.78125 -0.9375 9.09375 -0.5 C 8.414062 -0.0703125 7.625 0.140625 6.71875 0.140625 C 5.914062 0.140625 5.21875 -0.03125 4.625 -0.375 C 4.03125 -0.726562 3.582031 -1.226562 3.28125 -1.875 L 3.28125 3.0625 C 3.28125 3.3125 3.203125 3.507812 3.046875 3.65625 C 2.898438 3.8125 2.695312 3.890625 2.4375 3.890625 C 2.164062 3.890625 1.953125 3.8125 1.796875 3.65625 C 1.648438 3.5 1.578125 3.300781 1.578125 3.0625 L 1.578125 -9.59375 C 1.578125 -9.84375 1.648438 -10.046875 1.796875 -10.203125 C 1.953125 -10.359375 2.164062 -10.4375 2.4375 -10.4375 C 2.695312 -10.4375 2.898438 -10.359375 3.046875 -10.203125 C 3.203125 -10.046875 3.28125 -9.84375 3.28125 -9.59375 L 3.28125 -8.46875 C 3.582031 -9.101562 4.03125 -9.597656 4.625 -9.953125 C 5.21875 -10.304688 5.914062 -10.484375 6.71875 -10.484375 Z M 6.390625 -1.265625 C 7.378906 -1.265625 8.144531 -1.597656 8.6875 -2.265625 C 9.238281 -2.941406 9.515625 -3.894531 9.515625 -5.125 C 9.515625 -6.351562 9.238281 -7.3125 8.6875 -8 C 8.144531 -8.695312 7.378906 -9.046875 6.390625 -9.046875 C 5.390625 -9.046875 4.617188 -8.707031 4.078125 -8.03125 C 3.546875 -7.363281 3.28125 -6.410156 3.28125 -5.171875 C 3.28125 -3.921875 3.546875 -2.957031 4.078125 -2.28125 C 4.617188 -1.601562 5.390625 -1.265625 6.390625 -1.265625 Z M 6.390625 -1.265625 "/></g></g></g><g fill="#ffffff" fill-opacity="1"><g transform="translate(139.115416, 395.815279)"><g><path d="M 5.75 -10.484375 C 8.3125 -10.484375 9.59375 -9.140625 9.59375 -6.453125 L 9.59375 -0.734375 C 9.59375 -0.484375 9.519531 -0.28125 9.375 -0.125 C 9.226562 0.03125 9.03125 0.109375 8.78125 0.109375 C 8.53125 0.109375 8.328125 0.03125 8.171875 -0.125 C 8.015625 -0.28125 7.9375 -0.484375 7.9375 -0.734375 L 7.9375 -1.75 C 7.664062 -1.144531 7.257812 -0.675781 6.71875 -0.34375 C 6.175781 -0.0195312 5.546875 0.140625 4.828125 0.140625 C 4.171875 0.140625 3.566406 0.0078125 3.015625 -0.25 C 2.460938 -0.519531 2.023438 -0.890625 1.703125 -1.359375 C 1.378906 -1.835938 1.21875 -2.363281 1.21875 -2.9375 C 1.21875 -3.707031 1.410156 -4.304688 1.796875 -4.734375 C 2.191406 -5.160156 2.835938 -5.46875 3.734375 -5.65625 C 4.628906 -5.84375 5.875 -5.9375 7.46875 -5.9375 L 7.9375 -5.9375 L 7.9375 -6.640625 C 7.9375 -7.472656 7.765625 -8.085938 7.421875 -8.484375 C 7.078125 -8.878906 6.519531 -9.078125 5.75 -9.078125 C 4.800781 -9.078125 3.835938 -8.816406 2.859375 -8.296875 C 2.472656 -8.054688 2.207031 -7.9375 2.0625 -7.9375 C 1.894531 -7.9375 1.753906 -8 1.640625 -8.125 C 1.523438 -8.25 1.46875 -8.410156 1.46875 -8.609375 C 1.46875 -8.804688 1.523438 -8.976562 1.640625 -9.125 C 1.765625 -9.269531 1.957031 -9.421875 2.21875 -9.578125 C 2.71875 -9.859375 3.273438 -10.078125 3.890625 -10.234375 C 4.515625 -10.398438 5.132812 -10.484375 5.75 -10.484375 Z M 5.0625 -1.203125 C 5.90625 -1.203125 6.59375 -1.484375 7.125 -2.046875 C 7.664062 -2.609375 7.9375 -3.335938 7.9375 -4.234375 L 7.9375 -4.84375 L 7.5625 -4.84375 C 6.332031 -4.84375 5.394531 -4.789062 4.75 -4.6875 C 4.101562 -4.582031 3.644531 -4.40625 3.375 -4.15625 C 3.101562 -3.914062 2.96875 -3.5625 2.96875 -3.09375 C 2.96875 -2.539062 3.164062 -2.085938 3.5625 -1.734375 C 3.957031 -1.378906 4.457031 -1.203125 5.0625 -1.203125 Z M 5.0625 -1.203125 "/></g></g></g><g fill="#ffffff" fill-opacity="1"><g transform="translate(150.245458, 395.815279)"><g><path d="M 6.640625 -10.4375 C 7.222656 -10.476562 7.515625 -10.238281 7.515625 -9.71875 C 7.515625 -9.5 7.453125 -9.320312 7.328125 -9.1875 C 7.203125 -9.050781 6.984375 -8.972656 6.671875 -8.953125 L 6.046875 -8.890625 C 5.109375 -8.796875 4.410156 -8.457031 3.953125 -7.875 C 3.503906 -7.300781 3.28125 -6.625 3.28125 -5.84375 L 3.28125 -0.734375 C 3.28125 -0.453125 3.203125 -0.238281 3.046875 -0.09375 C 2.890625 0.0390625 2.6875 0.109375 2.4375 0.109375 C 2.1875 0.109375 1.976562 0.0351562 1.8125 -0.109375 C 1.65625 -0.265625 1.578125 -0.472656 1.578125 -0.734375 L 1.578125 -9.59375 C 1.578125 -9.863281 1.660156 -10.070312 1.828125 -10.21875 C 1.992188 -10.363281 2.195312 -10.4375 2.4375 -10.4375 C 2.65625 -10.4375 2.84375 -10.363281 3 -10.21875 C 3.15625 -10.070312 3.234375 -9.875 3.234375 -9.625 L 3.234375 -8.4375 C 3.523438 -9.050781 3.941406 -9.519531 4.484375 -9.84375 C 5.023438 -10.164062 5.644531 -10.359375 6.34375 -10.421875 Z M 6.640625 -10.4375 "/></g></g></g><g fill="#ffffff" fill-opacity="1"><g transform="translate(157.658493, 395.815279)"><g><path d="M 6.296875 -1.234375 C 6.785156 -1.191406 7.03125 -0.96875 7.03125 -0.5625 C 7.03125 -0.320312 6.941406 -0.144531 6.765625 -0.03125 C 6.597656 0.0820312 6.335938 0.128906 5.984375 0.109375 L 5.421875 0.0625 C 4.296875 -0.0195312 3.46875 -0.351562 2.9375 -0.9375 C 2.40625 -1.53125 2.140625 -2.421875 2.140625 -3.609375 L 2.140625 -8.890625 L 0.734375 -8.890625 C 0.492188 -8.890625 0.304688 -8.945312 0.171875 -9.0625 C 0.046875 -9.175781 -0.015625 -9.332031 -0.015625 -9.53125 C -0.015625 -9.738281 0.046875 -9.90625 0.171875 -10.03125 C 0.304688 -10.164062 0.492188 -10.234375 0.734375 -10.234375 L 2.140625 -10.234375 L 2.140625 -12.59375 C 2.140625 -12.863281 2.21875 -13.070312 2.375 -13.21875 C 2.53125 -13.363281 2.738281 -13.4375 3 -13.4375 C 3.25 -13.4375 3.453125 -13.363281 3.609375 -13.21875 C 3.765625 -13.070312 3.84375 -12.863281 3.84375 -12.59375 L 3.84375 -10.234375 L 6.171875 -10.234375 C 6.398438 -10.234375 6.578125 -10.164062 6.703125 -10.03125 C 6.835938 -9.90625 6.90625 -9.738281 6.90625 -9.53125 C 6.90625 -9.332031 6.835938 -9.175781 6.703125 -9.0625 C 6.578125 -8.945312 6.398438 -8.890625 6.171875 -8.890625 L 3.84375 -8.890625 L 3.84375 -3.53125 C 3.84375 -2.757812 4 -2.203125 4.3125 -1.859375 C 4.625 -1.515625 5.097656 -1.320312 5.734375 -1.28125 Z M 6.296875 -1.234375 "/></g></g></g><g fill="#ffffff" fill-opacity="1"><g transform="translate(164.798518, 395.815279)"><g><path d="M 6.71875 -10.484375 C 9.164062 -10.484375 10.390625 -9.128906 10.390625 -6.421875 L 10.390625 -0.734375 C 10.390625 -0.472656 10.316406 -0.265625 10.171875 -0.109375 C 10.023438 0.0351562 9.820312 0.109375 9.5625 0.109375 C 9.289062 0.109375 9.078125 0.0351562 8.921875 -0.109375 C 8.765625 -0.265625 8.6875 -0.472656 8.6875 -0.734375 L 8.6875 -6.328125 C 8.6875 -7.273438 8.5 -7.960938 8.125 -8.390625 C 7.757812 -8.828125 7.171875 -9.046875 6.359375 -9.046875 C 5.421875 -9.046875 4.671875 -8.757812 4.109375 -8.1875 C 3.554688 -7.613281 3.28125 -6.835938 3.28125 -5.859375 L 3.28125 -0.734375 C 3.28125 -0.472656 3.203125 -0.265625 3.046875 -0.109375 C 2.898438 0.0351562 2.695312 0.109375 2.4375 0.109375 C 2.164062 0.109375 1.953125 0.0351562 1.796875 -0.109375 C 1.648438 -0.265625 1.578125 -0.472656 1.578125 -0.734375 L 1.578125 -9.59375 C 1.578125 -9.84375 1.648438 -10.046875 1.796875 -10.203125 C 1.953125 -10.359375 2.164062 -10.4375 2.4375 -10.4375 C 2.6875 -10.4375 2.882812 -10.359375 3.03125 -10.203125 C 3.175781 -10.046875 3.25 -9.851562 3.25 -9.625 L 3.25 -8.546875 C 3.59375 -9.171875 4.0625 -9.648438 4.65625 -9.984375 C 5.257812 -10.316406 5.945312 -10.484375 6.71875 -10.484375 Z M 6.71875 -10.484375 "/></g></g></g><g fill="#ffffff" fill-opacity="1"><g transform="translate(176.726568, 395.815279)"><g><path d="M 9.484375 -2.375 C 9.640625 -2.375 9.773438 -2.3125 9.890625 -2.1875 C 10.003906 -2.0625 10.0625 -1.898438 10.0625 -1.703125 C 10.0625 -1.347656 9.816406 -1.023438 9.328125 -0.734375 C 8.816406 -0.441406 8.28125 -0.222656 7.71875 -0.078125 C 7.164062 0.0664062 6.625 0.140625 6.09375 0.140625 C 4.507812 0.140625 3.257812 -0.328125 2.34375 -1.265625 C 1.425781 -2.203125 0.96875 -3.492188 0.96875 -5.140625 C 0.96875 -6.191406 1.171875 -7.117188 1.578125 -7.921875 C 1.984375 -8.734375 2.550781 -9.363281 3.28125 -9.8125 C 4.019531 -10.257812 4.859375 -10.484375 5.796875 -10.484375 C 7.128906 -10.484375 8.1875 -10.046875 8.96875 -9.171875 C 9.75 -8.304688 10.140625 -7.132812 10.140625 -5.65625 C 10.140625 -5.375 10.082031 -5.164062 9.96875 -5.03125 C 9.863281 -4.90625 9.679688 -4.84375 9.421875 -4.84375 L 2.671875 -4.84375 C 2.796875 -2.4375 3.9375 -1.234375 6.09375 -1.234375 C 6.632812 -1.234375 7.097656 -1.304688 7.484375 -1.453125 C 7.878906 -1.609375 8.300781 -1.8125 8.75 -2.0625 C 9.113281 -2.269531 9.359375 -2.375 9.484375 -2.375 Z M 5.8125 -9.15625 C 4.914062 -9.15625 4.195312 -8.875 3.65625 -8.3125 C 3.125 -7.75 2.804688 -6.957031 2.703125 -5.9375 L 8.65625 -5.9375 C 8.625 -6.976562 8.363281 -7.773438 7.875 -8.328125 C 7.382812 -8.878906 6.695312 -9.15625 5.8125 -9.15625 Z M 5.8125 -9.15625 "/></g></g></g><g fill="#ffffff" fill-opacity="1"><g transform="translate(187.79361, 395.815279)"><g><path d="M 6.640625 -10.4375 C 7.222656 -10.476562 7.515625 -10.238281 7.515625 -9.71875 C 7.515625 -9.5 7.453125 -9.320312 7.328125 -9.1875 C 7.203125 -9.050781 6.984375 -8.972656 6.671875 -8.953125 L 6.046875 -8.890625 C 5.109375 -8.796875 4.410156 -8.457031 3.953125 -7.875 C 3.503906 -7.300781 3.28125 -6.625 3.28125 -5.84375 L 3.28125 -0.734375 C 3.28125 -0.453125 3.203125 -0.238281 3.046875 -0.09375 C 2.890625 0.0390625 2.6875 0.109375 2.4375 0.109375 C 2.1875 0.109375 1.976562 0.0351562 1.8125 -0.109375 C 1.65625 -0.265625 1.578125 -0.472656 1.578125 -0.734375 L 1.578125 -9.59375 C 1.578125 -9.863281 1.660156 -10.070312 1.828125 -10.21875 C 1.992188 -10.363281 2.195312 -10.4375 2.4375 -10.4375 C 2.65625 -10.4375 2.84375 -10.363281 3 -10.21875 C 3.15625 -10.070312 3.234375 -9.875 3.234375 -9.625 L 3.234375 -8.4375 C 3.523438 -9.050781 3.941406 -9.519531 4.484375 -9.84375 C 5.023438 -10.164062 5.644531 -10.359375 6.34375 -10.421875 Z M 6.640625 -10.4375 "/></g></g></g><g fill="#ffffff" fill-opacity="1"><g transform="translate(195.206645, 395.815279)"><g/></g></g><g fill="#ffffff" fill-opacity="1"><g transform="translate(200.624667, 395.815279)"><g><path d="M 2.4375 0.109375 C 2.1875 0.109375 1.976562 0.0351562 1.8125 -0.109375 C 1.65625 -0.265625 1.578125 -0.472656 1.578125 -0.734375 L 1.578125 -9.59375 C 1.578125 -9.863281 1.65625 -10.070312 1.8125 -10.21875 C 1.976562 -10.363281 2.1875 -10.4375 2.4375 -10.4375 C 2.6875 -10.4375 2.890625 -10.363281 3.046875 -10.21875 C 3.203125 -10.070312 3.28125 -9.863281 3.28125 -9.59375 L 3.28125 -0.734375 C 3.28125 -0.453125 3.203125 -0.238281 3.046875 -0.09375 C 2.890625 0.0390625 2.6875 0.109375 2.4375 0.109375 Z M 2.4375 -12.640625 C 2.101562 -12.640625 1.832031 -12.738281 1.625 -12.9375 C 1.414062 -13.132812 1.3125 -13.394531 1.3125 -13.71875 C 1.3125 -14.019531 1.414062 -14.269531 1.625 -14.46875 C 1.832031 -14.664062 2.101562 -14.765625 2.4375 -14.765625 C 2.78125 -14.765625 3.054688 -14.664062 3.265625 -14.46875 C 3.472656 -14.269531 3.578125 -14.019531 3.578125 -13.71875 C 3.578125 -13.394531 3.472656 -13.132812 3.265625 -12.9375 C 3.054688 -12.738281 2.78125 -12.640625 2.4375 -12.640625 Z M 2.4375 -12.640625 "/></g></g></g><g fill="#ffffff" fill-opacity="1"><g transform="translate(205.496691, 395.815279)"><g><path d="M 6.71875 -10.484375 C 9.164062 -10.484375 10.390625 -9.128906 10.390625 -6.421875 L 10.390625 -0.734375 C 10.390625 -0.472656 10.316406 -0.265625 10.171875 -0.109375 C 10.023438 0.0351562 9.820312 0.109375 9.5625 0.109375 C 9.289062 0.109375 9.078125 0.0351562 8.921875 -0.109375 C 8.765625 -0.265625 8.6875 -0.472656 8.6875 -0.734375 L 8.6875 -6.328125 C 8.6875 -7.273438 8.5 -7.960938 8.125 -8.390625 C 7.757812 -8.828125 7.171875 -9.046875 6.359375 -9.046875 C 5.421875 -9.046875 4.671875 -8.757812 4.109375 -8.1875 C 3.554688 -7.613281 3.28125 -6.835938 3.28125 -5.859375 L 3.28125 -0.734375 C 3.28125 -0.472656 3.203125 -0.265625 3.046875 -0.109375 C 2.898438 0.0351562 2.695312 0.109375 2.4375 0.109375 C 2.164062 0.109375 1.953125 0.0351562 1.796875 -0.109375 C 1.648438 -0.265625 1.578125 -0.472656 1.578125 -0.734375 L 1.578125 -9.59375 C 1.578125 -9.84375 1.648438 -10.046875 1.796875 -10.203125 C 1.953125 -10.359375 2.164062 -10.4375 2.4375 -10.4375 C 2.6875 -10.4375 2.882812 -10.359375 3.03125 -10.203125 C 3.175781 -10.046875 3.25 -9.851562 3.25 -9.625 L 3.25 -8.546875 C 3.59375 -9.171875 4.0625 -9.648438 4.65625 -9.984375 C 5.257812 -10.316406 5.945312 -10.484375 6.71875 -10.484375 Z M 6.71875 -10.484375 "/></g></g></g><g fill="#ffffff" fill-opacity="1"><g transform="translate(217.42474, 395.815279)"><g/></g></g><g fill="#ffffff" fill-opacity="1"><g transform="translate(222.842762, 395.815279)"><g><path d="M 6.734375 -10.484375 C 7.941406 -10.484375 8.851562 -10.140625 9.46875 -9.453125 C 10.082031 -8.773438 10.390625 -7.765625 10.390625 -6.421875 L 10.390625 -0.734375 C 10.390625 -0.472656 10.3125 -0.265625 10.15625 -0.109375 C 10.007812 0.0351562 9.8125 0.109375 9.5625 0.109375 C 9.289062 0.109375 9.078125 0.0351562 8.921875 -0.109375 C 8.765625 -0.265625 8.6875 -0.472656 8.6875 -0.734375 L 8.6875 -6.390625 C 8.6875 -7.296875 8.5 -7.960938 8.125 -8.390625 C 7.757812 -8.828125 7.171875 -9.046875 6.359375 -9.046875 C 5.421875 -9.046875 4.671875 -8.757812 4.109375 -8.1875 C 3.554688 -7.613281 3.28125 -6.835938 3.28125 -5.859375 L 3.28125 -0.734375 C 3.28125 -0.472656 3.203125 -0.265625 3.046875 -0.109375 C 2.898438 0.0351562 2.695312 0.109375 2.4375 0.109375 C 2.164062 0.109375 1.953125 0.0351562 1.796875 -0.109375 C 1.648438 -0.265625 1.578125 -0.472656 1.578125 -0.734375 L 1.578125 -14.09375 C 1.578125 -14.332031 1.65625 -14.523438 1.8125 -14.671875 C 1.976562 -14.828125 2.1875 -14.90625 2.4375 -14.90625 C 2.695312 -14.90625 2.898438 -14.832031 3.046875 -14.6875 C 3.203125 -14.539062 3.28125 -14.34375 3.28125 -14.09375 L 3.28125 -8.59375 C 3.613281 -9.207031 4.082031 -9.675781 4.6875 -10 C 5.289062 -10.320312 5.972656 -10.484375 6.734375 -10.484375 Z M 6.734375 -10.484375 "/></g></g></g><g fill="#ffffff" fill-opacity="1"><g transform="translate(234.770812, 395.815279)"><g><path d="M 2.4375 0.109375 C 2.1875 0.109375 1.976562 0.0351562 1.8125 -0.109375 C 1.65625 -0.265625 1.578125 -0.472656 1.578125 -0.734375 L 1.578125 -9.59375 C 1.578125 -9.863281 1.65625 -10.070312 1.8125 -10.21875 C 1.976562 -10.363281 2.1875 -10.4375 2.4375 -10.4375 C 2.6875 -10.4375 2.890625 -10.363281 3.046875 -10.21875 C 3.203125 -10.070312 3.28125 -9.863281 3.28125 -9.59375 L 3.28125 -0.734375 C 3.28125 -0.453125 3.203125 -0.238281 3.046875 -0.09375 C 2.890625 0.0390625 2.6875 0.109375 2.4375 0.109375 Z M 2.4375 -12.640625 C 2.101562 -12.640625 1.832031 -12.738281 1.625 -12.9375 C 1.414062 -13.132812 1.3125 -13.394531 1.3125 -13.71875 C 1.3125 -14.019531 1.414062 -14.269531 1.625 -14.46875 C 1.832031 -14.664062 2.101562 -14.765625 2.4375 -14.765625 C 2.78125 -14.765625 3.054688 -14.664062 3.265625 -14.46875 C 3.472656 -14.269531 3.578125 -14.019531 3.578125 -13.71875 C 3.578125 -13.394531 3.472656 -13.132812 3.265625 -12.9375 C 3.054688 -12.738281 2.78125 -12.640625 2.4375 -12.640625 Z M 2.4375 -12.640625 "/></g></g></g><g fill="#ffffff" fill-opacity="1"><g transform="translate(239.642836, 395.815279)"><g><path d="M 6.640625 -10.4375 C 7.222656 -10.476562 7.515625 -10.238281 7.515625 -9.71875 C 7.515625 -9.5 7.453125 -9.320312 7.328125 -9.1875 C 7.203125 -9.050781 6.984375 -8.972656 6.671875 -8.953125 L 6.046875 -8.890625 C 5.109375 -8.796875 4.410156 -8.457031 3.953125 -7.875 C 3.503906 -7.300781 3.28125 -6.625 3.28125 -5.84375 L 3.28125 -0.734375 C 3.28125 -0.453125 3.203125 -0.238281 3.046875 -0.09375 C 2.890625 0.0390625 2.6875 0.109375 2.4375 0.109375 C 2.1875 0.109375 1.976562 0.0351562 1.8125 -0.109375 C 1.65625 -0.265625 1.578125 -0.472656 1.578125 -0.734375 L 1.578125 -9.59375 C 1.578125 -9.863281 1.660156 -10.070312 1.828125 -10.21875 C 1.992188 -10.363281 2.195312 -10.4375 2.4375 -10.4375 C 2.65625 -10.4375 2.84375 -10.363281 3 -10.21875 C 3.15625 -10.070312 3.234375 -9.875 3.234375 -9.625 L 3.234375 -8.4375 C 3.523438 -9.050781 3.941406 -9.519531 4.484375 -9.84375 C 5.023438 -10.164062 5.644531 -10.359375 6.34375 -10.421875 Z M 6.640625 -10.4375 "/></g></g></g><g fill="#ffffff" fill-opacity="1"><g transform="translate(247.055871, 395.815279)"><g><path d="M 2.4375 0.109375 C 2.1875 0.109375 1.976562 0.0351562 1.8125 -0.109375 C 1.65625 -0.265625 1.578125 -0.472656 1.578125 -0.734375 L 1.578125 -9.59375 C 1.578125 -9.863281 1.65625 -10.070312 1.8125 -10.21875 C 1.976562 -10.363281 2.1875 -10.4375 2.4375 -10.4375 C 2.6875 -10.4375 2.890625 -10.363281 3.046875 -10.21875 C 3.203125 -10.070312 3.28125 -9.863281 3.28125 -9.59375 L 3.28125 -0.734375 C 3.28125 -0.453125 3.203125 -0.238281 3.046875 -0.09375 C 2.890625 0.0390625 2.6875 0.109375 2.4375 0.109375 Z M 2.4375 -12.640625 C 2.101562 -12.640625 1.832031 -12.738281 1.625 -12.9375 C 1.414062 -13.132812 1.3125 -13.394531 1.3125 -13.71875 C 1.3125 -14.019531 1.414062 -14.269531 1.625 -14.46875 C 1.832031 -14.664062 2.101562 -14.765625 2.4375 -14.765625 C 2.78125 -14.765625 3.054688 -14.664062 3.265625 -14.46875 C 3.472656 -14.269531 3.578125 -14.019531 3.578125 -13.71875 C 3.578125 -13.394531 3.472656 -13.132812 3.265625 -12.9375 C 3.054688 -12.738281 2.78125 -12.640625 2.4375 -12.640625 Z M 2.4375 -12.640625 "/></g></g></g><g fill="#ffffff" fill-opacity="1"><g transform="translate(251.927895, 395.815279)"><g><path d="M 6.71875 -10.484375 C 9.164062 -10.484375 10.390625 -9.128906 10.390625 -6.421875 L 10.390625 -0.734375 C 10.390625 -0.472656 10.316406 -0.265625 10.171875 -0.109375 C 10.023438 0.0351562 9.820312 0.109375 9.5625 0.109375 C 9.289062 0.109375 9.078125 0.0351562 8.921875 -0.109375 C 8.765625 -0.265625 8.6875 -0.472656 8.6875 -0.734375 L 8.6875 -6.328125 C 8.6875 -7.273438 8.5 -7.960938 8.125 -8.390625 C 7.757812 -8.828125 7.171875 -9.046875 6.359375 -9.046875 C 5.421875 -9.046875 4.671875 -8.757812 4.109375 -8.1875 C 3.554688 -7.613281 3.28125 -6.835938 3.28125 -5.859375 L 3.28125 -0.734375 C 3.28125 -0.472656 3.203125 -0.265625 3.046875 -0.109375 C 2.898438 0.0351562 2.695312 0.109375 2.4375 0.109375 C 2.164062 0.109375 1.953125 0.0351562 1.796875 -0.109375 C 1.648438 -0.265625 1.578125 -0.472656 1.578125 -0.734375 L 1.578125 -9.59375 C 1.578125 -9.84375 1.648438 -10.046875 1.796875 -10.203125 C 1.953125 -10.359375 2.164062 -10.4375 2.4375 -10.4375 C 2.6875 -10.4375 2.882812 -10.359375 3.03125 -10.203125 C 3.175781 -10.046875 3.25 -9.851562 3.25 -9.625 L 3.25 -8.546875 C 3.59375 -9.171875 4.0625 -9.648438 4.65625 -9.984375 C 5.257812 -10.316406 5.945312 -10.484375 6.71875 -10.484375 Z M 6.71875 -10.484375 "/></g></g></g><g fill="#ffffff" fill-opacity="1"><g transform="translate(263.855945, 395.815279)"><g><path d="M 9.875 -10.4375 C 10.132812 -10.4375 10.34375 -10.359375 10.5 -10.203125 C 10.65625 -10.046875 10.734375 -9.84375 10.734375 -9.59375 L 10.734375 -0.6875 C 10.734375 0.832031 10.335938 1.976562 9.546875 2.75 C 8.765625 3.53125 7.601562 3.921875 6.0625 3.921875 C 4.570312 3.921875 3.328125 3.628906 2.328125 3.046875 C 1.828125 2.765625 1.578125 2.441406 1.578125 2.078125 C 1.578125 1.878906 1.628906 1.71875 1.734375 1.59375 C 1.835938 1.46875 1.972656 1.40625 2.140625 1.40625 C 2.285156 1.40625 2.535156 1.503906 2.890625 1.703125 C 3.390625 1.953125 3.875 2.15625 4.34375 2.3125 C 4.820312 2.46875 5.390625 2.546875 6.046875 2.546875 C 7.035156 2.546875 7.78125 2.28125 8.28125 1.75 C 8.789062 1.226562 9.046875 0.460938 9.046875 -0.546875 L 9.046875 -2.359375 C 8.753906 -1.691406 8.300781 -1.179688 7.6875 -0.828125 C 7.082031 -0.484375 6.367188 -0.3125 5.546875 -0.3125 C 4.648438 -0.3125 3.851562 -0.519531 3.15625 -0.9375 C 2.46875 -1.363281 1.929688 -1.960938 1.546875 -2.734375 C 1.160156 -3.503906 0.96875 -4.390625 0.96875 -5.390625 C 0.96875 -6.398438 1.160156 -7.289062 1.546875 -8.0625 C 1.929688 -8.832031 2.46875 -9.425781 3.15625 -9.84375 C 3.851562 -10.269531 4.648438 -10.484375 5.546875 -10.484375 C 6.359375 -10.484375 7.0625 -10.304688 7.65625 -9.953125 C 8.257812 -9.597656 8.71875 -9.101562 9.03125 -8.46875 L 9.03125 -9.59375 C 9.03125 -9.84375 9.101562 -10.046875 9.25 -10.203125 C 9.394531 -10.359375 9.601562 -10.4375 9.875 -10.4375 Z M 5.875 -1.71875 C 6.851562 -1.71875 7.625 -2.039062 8.1875 -2.6875 C 8.75 -3.34375 9.03125 -4.242188 9.03125 -5.390625 C 9.03125 -6.523438 8.753906 -7.414062 8.203125 -8.0625 C 7.648438 -8.71875 6.875 -9.046875 5.875 -9.046875 C 4.882812 -9.046875 4.101562 -8.71875 3.53125 -8.0625 C 2.96875 -7.414062 2.6875 -6.523438 2.6875 -5.390625 C 2.6875 -4.242188 2.96875 -3.34375 3.53125 -2.6875 C 4.101562 -2.039062 4.882812 -1.71875 5.875 -1.71875 Z M 5.875 -1.71875 "/></g></g></g><g fill="#ffffff" fill-opacity="1"><g transform="translate(276.161993, 395.815279)"><g><path d="M 2.421875 0.109375 C 2.078125 0.109375 1.789062 0 1.5625 -0.21875 C 1.34375 -0.4375 1.234375 -0.722656 1.234375 -1.078125 C 1.234375 -1.421875 1.34375 -1.703125 1.5625 -1.921875 C 1.789062 -2.148438 2.078125 -2.265625 2.421875 -2.265625 C 2.734375 -2.265625 3 -2.148438 3.21875 -1.921875 C 3.4375 -1.703125 3.546875 -1.421875 3.546875 -1.078125 C 3.546875 -0.722656 3.4375 -0.4375 3.21875 -0.21875 C 3 0 2.734375 0.109375 2.421875 0.109375 Z M 2.421875 0.109375 "/></g></g></g></svg>